/* XPM */
static char *collect__2_1711802452[] = {
/* columns rows colors chars-per-pixel */
"64 64 246 2 ",
"   c None",
".  c #614C3F",
"X  c #777245",
"o  c #BE383F",
"O  c #C2373F",
"+  c #C3373F",
"@  c #C6363F",
"#  c #D3333F",
"$  c #D0343F",
"%  c #D3343F",
"&  c #D2363F",
"*  c #D4373E",
"=  c #D4363F",
"-  c #D4383E",
";  c #D4393E",
":  c #D5393E",
">  c #D63F3D",
",  c #96403F",
"<  c #D8473C",
"1  c #D8483C",
"2  c #DE5F37",
"3  c #DB543A",
"4  c #DC5A38",
"5  c #E06936",
"6  c #E27135",
"7  c #E37634",
"8  c #C73A4A",
"9  c #C63B4B",
"0  c #D33440",
"q  c #D33541",
"w  c #D43743",
"e  c #D13C40",
"r  c #D03F41",
"t  c #D43844",
"y  c #D43944",
"u  c #D53B47",
"i  c #BD4053",
"p  c #B5455A",
"a  c #B1605F",
"s  c #9F526E",
"d  c #CF4341",
"f  c #D6404B",
"g  c #D6404C",
"h  c #D6424D",
"j  c #CC5143",
"k  c #C95E44",
"l  c #D74550",
"z  c #D84853",
"x  c #D84954",
"c  c #D84C57",
"v  c #C86445",
"b  c #C66946",
"n  c #C47247",
"m  c #C27948",
"M  c #D06957",
"N  c #DB5862",
"B  c #DB5A63",
"V  c #DC5E68",
"C  c #DD6069",
"Z  c #DE6770",
"A  c #DF6B74",
"S  c #E1737B",
"D  c #E2777F",
"F  c #EA952E",
"G  c #EB952F",
"H  c #EB972E",
"J  c #EB9A2E",
"K  c #E68432",
"L  c #E88C30",
"P  c #DDB22A",
"I  c #EEA22C",
"U  c #E8BA28",
"Y  c #F4BD28",
"T  c #DFC03A",
"R  c #F5C127",
"E  c #F5C227",
"W  c #F5C327",
"Q  c #F5C627",
"!  c #F6C626",
"~  c #F6C627",
"^  c #F4C628",
"/  c #F6C82D",
"(  c #F6C82E",
")  c #F7C930",
"_  c #F7CA33",
"`  c #F7CB38",
"'  c #F7CB3B",
"]  c #F7CC3E",
"[  c #BF894A",
"{  c #BE8C4A",
"}  c #BAA04D",
"|  c #B8A54D",
" . c #B7AD4E",
".. c #B5B34F",
"X. c #B5B54F",
"o. c #B4B650",
"O. c #8EB375",
"+. c #84BD7D",
"@. c #AFCE53",
"#. c #AACF57",
"$. c #A9CF58",
"%. c #A8CE59",
"&. c #B1C652",
"*. c #B0CB52",
"=. c #AED053",
"-. c #AED153",
";. c #AED154",
":. c #AFD256",
">. c #B2D35B",
",. c #B3D45D",
"<. c #B3D45E",
"1. c #8AC077",
"2. c #BCC163",
"3. c #B5D561",
"4. c #B7D665",
"5. c #B8D667",
"6. c #BAD86C",
"7. c #BCD970",
"8. c #BCD971",
"9. c #BDDA73",
"0. c #F7CE44",
"q. c #F7CE45",
"w. c #F7CE46",
"e. c #F7CF46",
"r. c #F7CF47",
"t. c #F8D04A",
"y. c #F8D04D",
"u. c #F8D04E",
"i. c #F8D254",
"p. c #F8D45D",
"a. c #D8CD7B",
"s. c #C1DC7C",
"d. c #C2DC7E",
"f. c #F9D768",
"g. c #F3D876",
"h. c #F9DA74",
"j. c #FADD7C",
"k. c #FADD7E",
"l. c #776991",
"z. c #E47F87",
"x. c #67AF9A",
"c. c #76A695",
"v. c #69B098",
"b. c #429DBF",
"n. c #4BA2B6",
"m. c #48A0B9",
"M. c #3C97C7",
"N. c #3295CF",
"B. c #2F94D2",
"V. c #3094D1",
"C. c #3095D1",
"Z. c #3094D2",
"A. c #3095D2",
"S. c #3195D2",
"D. c #3296D3",
"F. c #3496D3",
"G. c #3698D4",
"H. c #3798D4",
"J. c #429ED6",
"K. c #449FD6",
"L. c #57A8DB",
"P. c #58A9DB",
"I. c #60ACD8",
"U. c #66B0DE",
"Y. c #67B1DE",
"T. c #69B2DF",
"R. c #6CB4DF",
"E. c #73B7E1",
"W. c #78BAE2",
"Q. c #7ABAE2",
"!. c #81A98B",
"~. c #E5858C",
"^. c #E68990",
"/. c #E89299",
"(. c #C4DE82",
"). c #C6DF86",
"_. c #CDE395",
"`. c #CDE396",
"'. c #D4E6A3",
"]. c #D9E9AD",
"[. c #DEECB9",
"{. c #FBE8A7",
"}. c #FCE9A9",
"|. c #FDEEBF",
" X c #87C1E5",
".X c #8FC5E7",
"XX c #91C7E7",
"oX c #97CAE9",
"OX c #A8D2EC",
"+X c #B5D9EF",
"@X c #F2C0C4",
"#X c #F5D0D3",
"$X c #F5D1D3",
"%X c #F6D3D6",
"&X c #F6D7D9",
"*X c #F7D9DB",
"=X c #F8DDDF",
"-X c #E2EEC1",
";X c #E3EFC4",
":X c #FDEFC1",
">X c #E4F0C5",
",X c #E7F1CC",
"<X c #FDF0C6",
"1X c #E9F2D0",
"2X c #EFF6DD",
"3X c #FDF3D0",
"4X c #FEF7DF",
"5X c #C3E0F2",
"6X c #CAE4F4",
"7X c #D2E8F5",
"8X c #DFEFF8",
"9X c #F9E1E3",
"0X c #FAE7E8",
"qX c #FAE7E9",
"wX c #FBEBEC",
"eX c #F1F7E1",
"rX c #F3F8E6",
"tX c #FEF8E5",
"yX c #F8F7ED",
"uX c #F4F9E8",
"iX c #F6FAEC",
"pX c #F6FAED",
"aX c #FEF9E9",
"sX c #FEFAEA",
"dX c #FEFAED",
"fX c #FEFBEF",
"gX c #E0EFF8",
"hX c #FCEFF0",
"jX c #E6F2FA",
"kX c #EFF7FC",
"lX c #FCF3F4",
"zX c #FDF3F4",
"xX c #FDF6F7",
"cX c #FEFBF0",
"vX c #FBFDF5",
"bX c #FFFCF4",
"nX c #F2F9FC",
"mX c #F4FAFD",
"MX c #FEF9F9",
"NX c #FEFAFA",
"BX c #FFFEFC",
"VX c #FFFEFD",
"CX c #FDFEFF",
"ZX c #FFFFFE",
"AX c #FEFFFF",
"SX c white",
/* pixels */
"                                                                                                                                ",
"                                                    B.B.B.B.B.B.B.B.                                                            ",
"                                                B.B.B.B.B.A..XXXL.A.B.Z.                                                        ",
"                                              B.B.J.OXjXW.L.ZXZXZX8XE.A.B.                                                      ",
"                                            B.B.R.mXZXZX XD.oX5XkXZXgXJ.B.B.                                                    ",
"                          ! ! ! ! ! !       B.T.kXZX6XU.D.B.B.B.K.W.U.A.B.A.b.    -.-.                                          ",
"                      ! ! ! ! ) ) ! ! ! ! c.J.nXZX+XH.B.B.B.B.B.A.B.B.B.m.1.$.-.;.-.;.;.-.-.                                    ",
"                  ! ! ( w.! k.ZXZXcX:Xi.! ! a.ZX7XH.B.B.B.B.B.B.B.B.N.v.#.-.7.).:.7.-X].).;.-.-.                                ",
"                ! ! u.tXZXp.h.dXcXZXZX}.! ! ! g.I.B.B.B.B.B.B.B.B.A.+.-.4.,XZXZX(.'.ZXZXZXuXs.;.-.                              ",
"                ! f.cXZX4Xw.^ ` ` t.k.0.! ! ! ! !.B.B.B.B.B.B.B.A.x.-.d.pXZXvX;X3.,.`.[.rXZX;X;.-.-.                            ",
"              ! ] aXZX|._ ! ! ! ! ! ! ! ! ! ! ! T M.B.B.B.B.B.B.n.$.7.pXZXeX6.;.-.-.;.-.>.`.5.-.-.-.-.                          ",
"            ! ! <XZX3X( ! ! ! ! ! ! ! ! ! ! ! R F a p 9 8 i s l.O.;.2XZX1X,.-.-.-.-.-.-.-.-.-.-.-.-.-.                          ",
"            ! r.ZXbXe.! ! ! ! ! ! ! ! ! ! ! I 1 q # q z c l q q r { yXpX4.-.-.-.-.-.-.-.-.-.-.-.-.-.-.                          ",
"            ! t.aX}.! ! ! ! ! ! ! ! ! ! R 7 w y B y S lXxXhX$X^.0 0 M 2.-.-.-.-.-.-.-.-.-.-.-.-.-.-.-.-.                        ",
"            ! ! w.) ! ! ! ! ! ! ! ! ! ! K = x @XMX~.A lXMXZXZX9Xt # # k *.-.-.-.-.-.-.-.-.-.-.-.-.-.-.-.                        ",
"            ! ! ! ! ! ! ! ! ! ! ! ! ! L = B qXZXwXZ # # # u z.C # # # # n -.-.-.-.-.-.-.-.-.-.-.-.-.-.-.                        ",
"            ! ! ! ! ! ! ! ! ! ! ! ! R < u *XZX*XV # # # # # # # # # # # %  .-.-.-.-.-.-.-.-.-.-.-.-.-.-.                        ",
"            ! ! ! ! ! ! ! ! ! ! ! ! F # /.ZXqXh # # # # # # # # # # # # % b -.-.-.-.-.-.-.-.-.-.-.-.-.-.                        ",
"            ! ! ! ! ! ! ! ! ! ! ! ! 5 h =XZXz.# # # # # # # # # # # # # % r @.-.-.-.-.-.-.-.-.-.-.-.-.-.                        ",
"            ! ! ! ! ! ! ! ! ! ! ! ! 1 h $X#Xw # # # # # # # # # # # # # # # ..-.-.-.-.-.-.-.-.-.-.-.-.                          ",
"              ! ! ! ! ! ! ! ! ! ! ! : # l h # # # # # # # # # # # # # # # # | -.-.-.-.-.-.-.-.-.-.-.-.                          ",
"              ! ! ! ! ! ! ! ! ! ! ! = # 0 # # # # # # # # # # # # # # # # # } -.-.-.-.-.-.-.-.-.-.-.-.                          ",
"                ! ! ! ! ! ! ! ! ! ! > # # # # # # # # # # # # # # # # # # # | -.-.-.-.-.-.-.-.-.-.-.                            ",
"                ! ! ! ! ! ! ! ! ! ! 3 # # # # # # # # # # # # # # # # # # = ..-.-.-.-.-.-.-.-.-.-.-.                            ",
"                  ! ! ! ! ! ! ! ! ! 6 # # # # # # # # # # # # # # # # # # # &.-.-.-.-.-.-.-.-.-.-.                              ",
"                  ! ! ! ! ! ! ! ! ! F # # # # # # # # # # # # # # # # # # d -.-.-.-.-.-.-.-.-.-.-.                              ",
"                    ! ! ! ! ! ! ! ! Y = # # # # # # # # # # # # # # # # # v -.-.-.-.-.-.-.-.-.-.                                ",
"                    ! ! ! ! ! ! ! ! ! 2 # # # # # # # # # # # # # # # # # [ -.-.-.-.-.-.-.-.-.                                  ",
"                      ! ! ! ! ! ! ! ! J : % # # # # # # # # # # # # # # # o.-.-.-.-.-.-.-.-.                                    ",
"                        ! ! ! ! ! ! ! R 4 # # # # # # # # # # # # # # # j @.-.-.-.-.-.-.-.                                      ",
"                          ! ! ! ! ! ! !   # # # # # # # # # # # # # # # m -.-.-.-.-.-.-.                                        ",
"                              ! ! ! !     # # # # # # # # # # # # # # %     -.-.-.-.-.                                          ",
"                              ! ! ! ! !     # # # # # # # # # # # # #     -.-.-.-.-.                                            ",
"                              ! ! U P         # # # # # # # # # # # #       -.-.-.-.                                            ",
"                                    .         # # # # # # # # # # #             X                                               ",
"                                    .           # # # # # # # # #             .                                                 ",
"                                      .             # # # # # #               .                                                 ",
"                                      .               o % # #               .                                                   ",
"                                        .             # # # # #             .                                                   ",
"                                                      @ O # O ,           .                                                     ",
"                                          .             .     .           .                                                     ",
"                                                        .     .         .                                                       ",
"                                            .           .               .                                                       ",
"                                              .         .   .         .                                                         ",
"                                              .         .   .         .                                                         ",
"                                                .       .   .       .                                                           ",
"                                                .       .   .       .                                                           ",
"                                                  .     .   .     .                                                             ",
"                                                  .         .     .                                                             ",
"                                                    .     . .   .                                                               ",
"                                                    .     . .   .                                                               ",
"                                                      .   .                                                                     ",
"                                                      .   . . .                                                                 ",
"                                                        . . .                                                                   ",
"                                              .   . . . . . .     . . .                                                         ",
"                                            .           . . . .         .                                                       ",
"                                              .     . . . . . .         .                                                       ",
"                                                          .     . . . .                                                         ",
"                                                          . .                                                                   ",
"                                                          . .                                                                   ",
"                                                          . .                                                                   ",
"                                                          .                                                                     ",
"                                                          .                                                                     ",
"                                                        .                                                                       "
};
