/* XPM */
static char *bd24a74b38d34b3de8e8439fc8731eeb2HOtRUjP8mlqbbpE[] = {
/* columns rows colors chars-per-pixel */
"64 64 149 2 ",
"   c None",
".  c #614C3F",
"X  c #A33E3F",
"o  c #BF373F",
"O  c #C7363F",
"+  c #C9353F",
"@  c #D3333F",
"#  c #D53B3E",
"$  c #D94B3C",
"%  c #DB553A",
"&  c #DD5B38",
"*  c #DC6139",
"=  c #E16C36",
"-  c #E37434",
";  c #E47B33",
":  c #D33541",
">  c #D33B43",
",  c #D63E4A",
"<  c #A74D67",
"1  c #CF4641",
"2  c #CE4842",
"3  c #D04141",
"4  c #CA5A44",
"5  c #CB5543",
"6  c #D74651",
"7  c #D94C56",
"8  c #D94F59",
"9  c #DB555F",
"0  c #C56E47",
"q  c #C27E49",
"w  c #DC5E68",
"e  c #DC5E67",
"r  c #DF6B74",
"t  c #E1747C",
"y  c #EC992E",
"u  c #E88D30",
"i  c #E68132",
"p  c #DFB42A",
"a  c #EFA72B",
"s  c #F4BF27",
"d  c #F2B429",
"f  c #F4BB28",
"g  c #EBC32F",
"h  c #F6C626",
"j  c #F4C62B",
"k  c #F6C82F",
"l  c #F7CA35",
"z  c #F7CC3B",
"x  c #909E4B",
"c  c #BF8B4A",
"v  c #BD934B",
"b  c #9AAE4E",
"n  c #B7AD4E",
"m  c #B4B750",
"M  c #B4BA50",
"N  c #98AC78",
"B  c #89BF79",
"V  c #D28E6F",
"C  c #AFCD53",
"Z  c #A8CE5A",
"A  c #B2C151",
"S  c #B0C952",
"D  c #AED153",
"F  c #B0D257",
"G  c #B1D35A",
"H  c #99C769",
"J  c #8CC176",
"K  c #A1CB60",
"L  c #BAC361",
"P  c #B6D564",
"I  c #B9D76A",
"U  c #BEDA74",
"Y  c #F7CD41",
"T  c #F8CF49",
"R  c #F8D14E",
"E  c #F8D55D",
"W  c #C3DA7D",
"Q  c #F9D768",
"!  c #F9D86A",
"~  c #FADD7D",
"^  c #7B678E",
"/  c #79718F",
"(  c #786991",
")  c #6376A5",
"_  c #E37B82",
"`  c #75A695",
"'  c #4587BE",
"]  c #5CA9A6",
"[  c #4EA3B3",
"{  c #55A1BE",
"}  c #3999C8",
"|  c #2F94D2",
" . c #3195D2",
".. c #3C9AD5",
"X. c #409CC2",
"o. c #439ED7",
"O. c #47A0D7",
"+. c #48A1D7",
"@. c #4EA4D9",
"#. c #5CACDC",
"$. c #57A9DB",
"%. c #6CB3DF",
"&. c #6FB5E0",
"*. c #72B7E1",
"=. c #86AA87",
"-. c #E5848B",
";. c #E68C93",
":. c #E79198",
">. c #E9979D",
",. c #EA9EA3",
"<. c #EBA4A9",
"1. c #EFB6BA",
"2. c #EEB0B5",
"3. c #FADE82",
"4. c #C8E08A",
"5. c #CFE499",
"6. c #D0E49B",
"7. c #FAE18B",
"8. c #FBE69E",
"9. c #D4E7A4",
"0. c #DEECB8",
"q. c #FCEAAF",
"w. c #FCEDBB",
"e. c #FCECB5",
"r. c #8AC3E6",
"t. c #A8D2EC",
"y. c #BDDDF1",
"u. c #F7DBDD",
"i. c #DEE7DC",
"p. c #E2EFC2",
"a. c #E4F0C5",
"s. c #FDF0C6",
"d. c #FDF3CF",
"f. c #EDF5DA",
"g. c #ECF4D7",
"h. c #FDF4D4",
"j. c #CEE6F5",
"k. c #D4E9F6",
"l. c #FBEEEF",
"z. c #F1F7E1",
"x. c #FEFBEF",
"c. c #F7F9E6",
"v. c #FCEFF0",
"b. c #EDF6FB",
"n. c #E4F1F9",
"m. c #FDF5F5",
"M. c #FCFCF4",
"N. c #F5FAFD",
"B. c #FEFFFE",
/* pixels */
"                                                                                                                                ",
"                                          | | | | | |                                                                           ",
"                                    | | | |  .o...| | | |                                                                       ",
"                                  | | | ..j.B.B.B.n.$.| | |     D D D D D D D                                                   ",
"                                |  .r.%.O.b.N.b.N.B.&.| | } J D D D P U U I F D D D                                             ",
"                              | ..y.B.k...O.+...o.@. .| [ H D P P D c.B.B.B.z.W D D D                                           ",
"                            |  .t.B.N.#. .| | | | | | X.K D 9.M.g.G 0.z.z.B.B.6.D D D D                                         ",
"                            | *.N.B.*.| | | | | | |  .J D 5.B.B.a.F D D D F U F D D D D D                                       ",
"                          | | j.B.t.| | | | | | | | ] D 4.B.B.0.D D D D D D D D D D D D D                                       ",
"                  h h h j ` { B.B.$.| | | | | | | | B F g.B.p.G D D D D D D D D D D D D D D                                     ",
"            h h h h h h h h j ~ i...| | | | | | |  .Z U B.B.I D D D D D D D D D D D D D D D                                     ",
"          h h Y 7.e.d.s.Y h h h g =. .|  .' ) ( ^ / n W B.g.D D D D D D D D D D D D D D D D                                     ",
"        h h z M.B.B.B.B.Q h h h h h N ) < : @ @ @ @ @ > V L D D D D D D D D D D D D D D D D D                                   ",
"      h z T l s.e.~ E R h h h h h d * : : w :.2.1.<., @ @ > v C D D D D D D D D D D D D D D D                                   ",
"    h k h.x.Y h h h h h h h h h d $ @ @ 8 m.B.B.B.B.r @ @ @ @ q C D D D D D D D D D D D D D D                                   ",
"  h h 8.B.h.l h h h h h h h h f % @ _ -.6 1.1.;.-.-.> @ @ @ @ @ c D D D D D D D D D D D D D D                                   ",
"  h l x.B.! h h h h h h h h h - @ t m.m.9 : : @ @ @ @ @ @ @ @ @ 3 n D D D D D D D D D D D D                                     ",
"  h 7.B.d.h h h h h h h h h f # 7 v.B.,.> @ @ @ @ @ @ @ @ @ @ @ @ 4 D D D D D D D D D D D D                                     ",
"  h w.B.3.h h h h h h h h h u @ >.B.u.> @ @ @ @ @ @ @ @ @ @ @ @ @ @ M D D D D D D D D D D D                                     ",
"  h h.B.E h h h h h h h h h = > u.B._ @ @ @ @ @ @ @ @ @ @ @ @ @ @ @ c D D D D D D D D D D D                                     ",
"  h q.c.z h h h h h h h h s % 9 l.B.7 @ @ @ @ @ @ @ @ @ @ @ @ @ @ @ 0 D D D D D D D D D D D                                     ",
"  h h l h h h h h h h h h f % w m.m.: @ @ @ @ @ @ @ @ @ @ @ @ @ @ @ 5 S D D D D D D D D D                                       ",
"  h h h h h h h h h h h h h & : t e @ @ @ @ @ @ @ @ @ @ @ @ @ @ @ @ 1 A D D D D D D D D D                                       ",
"  h h h h h h h h h h h h h - @ @ @ @ @ @ @ @ @ @ @ @ @ @ @ @ @ @ @ > m D D D D D D D D D                                       ",
"    h h h h h h h h h h h h y @ @ @ @ @ @ @ @ @ @ @ @ @ @ @ @ @ @ @ @ m D D D D D D D D                                         ",
"    h h h h h h h h h h h h h # @ @ @ @ @ @ @ @ @ @ @ @ @ @ @ @ @ @ : m D D D D D D D D                                         ",
"      h h h h h h h h h h h h i @ @ @ @ @ @ @ @ @ @ @ @ @ @ @ @ @ @ > M D D D D D D D                                           ",
"        h h h h h h h h h h h s % @ @ @ @ @ @ @ @ @ @ @ @ @ @ @ @ @ 2 A D D D D D D                                             ",
"          h h h h h h h h h h h a # @ @ @ @ @ @ @ @ @ @ @ @ @ @ @ @ 4 S D D D D D D                                             ",
"            h h h h h h h h h h h ; @ @ @ @ @ @ @ @ @ @ @ @ @ @ @ @ 1 D D D D D D                                               ",
"              h h h h h h h h h h h = @ @ @ @ @ @ @ @ @ @ @ @ @ @ @       D D D                                                 ",
"                h h h h h h h h h h f $ @ @ @ @ @ @ @ @ @ @ @ @ @ @     D D D D D                                               ",
"                    h h h h h h h h h   @ @ @ @ @ @ @ @ @ @ @ @ @ @         b x                                                 ",
"                      h h h h h h h       @ @ @ @ @ @ @ @ @ @ @ @           .                                                   ",
"                              h h h h       @ @ @ @ @ @ @ @ @ @ @           .                                                   ",
"                              h h p           @ @ @ @ @ @ @ @ @             .                                                   ",
"                                    .             @ @ @ @ @ @                                                                   ",
"                                      .               o @ @ @             .                                                     ",
"                                      .               @ @ @ @ @           .                                                     ",
"                                        .             O + @ X                                                                   ",
"                                          .                             .                                                       ",
"                                          .             .   .           .                                                       ",
"                                            .           .   .                                                                   ",
"                                                        .   .         .                                                         ",
"                                              .         .   .         .                                                         ",
"                                                .       .   .       .                                                           ",
"                                                .       .   .       .                                                           ",
"                                                  .     .   .     .                                                             ",
"                                                  .         .     .                                                             ",
"                                                    .     . .   .                                                               ",
"                                                    .     . .   .                                                               ",
"                                                      .   . .                                                                   ",
"                                                      .   . . .                                                                 ",
"                                                        . . . .                                                                 ",
"                                              . . . . . . . .     . . . .                                                       ",
"                                            .           . . . .         .                                                       ",
"                                              .       . . . . . .       .                                                       ",
"                                                . .       . .     . . .                                                         ",
"                                                          . .                                                                   ",
"                                                            .                                                                   ",
"                                                            . .                                                                 ",
"                                                              .                                                                 ",
"                                                          .                                                                     ",
"                                                          .                                                                     "
};
