/* XPM */
static char *f3b405b242114f36cb5777a693eeaeadWVUzCt0hQmOhqIRa[] = {
/* columns rows colors chars-per-pixel */
"64 64 142 2 ",
"   c None",
".  c #614C3F",
"X  c #C7363F",
"o  c #D3333F",
"O  c #D53A3E",
"+  c #86443F",
"@  c #D7433C",
"#  c #D94E3B",
"$  c #DB5439",
"%  c #DD5C38",
"&  c #DF6437",
"*  c #E47A33",
"=  c #E37734",
"-  c #BF3F51",
";  c #CB3A46",
":  c #D33440",
">  c #D33B44",
",  c #935978",
"<  c #A74D66",
"1  c #CF4441",
"2  c #D04241",
"3  c #D24848",
"4  c #C95D44",
"5  c #D74550",
"6  c #DA555F",
"7  c #C76A46",
"8  c #C96145",
"9  c #C57147",
"0  c #C37848",
"q  c #DB5761",
"w  c #DC5D66",
"e  c #DE646D",
"r  c #DF6C75",
"t  c #E06E77",
"y  c #E0717A",
"u  c #A28134",
"i  c #EB982E",
"p  c #EFA92B",
"a  c #F0AC2A",
"s  c #F4BE27",
"d  c #F6C626",
"f  c #F1C62D",
"g  c #F6C82D",
"h  c #F7CA34",
"j  c #F7CC3E",
"k  c #BF8B4A",
"l  c #BD914B",
"z  c #99AD4E",
"x  c #B8A84E",
"c  c #B6AE4F",
"v  c #B3BC50",
"b  c #B4B650",
"n  c #9DA368",
"m  c #84BD7D",
"M  c #C0864A",
"N  c #C3A962",
"B  c #ADCD53",
"V  c #AED153",
"C  c #B2D35B",
"Z  c #94C56E",
"A  c #B6D663",
"S  c #BAD86C",
"D  c #BDDA73",
"F  c #E0C342",
"G  c #F7CE43",
"H  c #F8D152",
"J  c #C2DC7D",
"K  c #F9D662",
"L  c #F9D96C",
"P  c #F9DB74",
"I  c #FADC79",
"U  c #736C95",
"Y  c #E37D84",
"T  c #7EBA83",
"R  c #6AB097",
"E  c #55A6AD",
"W  c #4EA3B3",
"Q  c #64A1A5",
"!  c #3B8DC7",
"~  c #3593CD",
"^  c #3A99CA",
"/  c #2F94D2",
"(  c #3295D3",
")  c #3B9AD5",
"_  c #418AC2",
"`  c #429ED6",
"'  c #4FA5D9",
"]  c #57A9DB",
"[  c #59AADB",
"{  c #63AFDD",
"}  c #6BB3DF",
"|  c #65B0DE",
" . c #77B9E2",
".. c #839F89",
"X. c #E48088",
"o. c #E68A91",
"O. c #E79197",
"+. c #ECA5AA",
"@. c #EEB1B6",
"#. c #F0B9BD",
"$. c #C8DF89",
"%. c #FADF83",
"&. c #C8E089",
"*. c #CEE396",
"=. c #D0E59C",
"-. c #FBE28E",
";. c #FBE59C",
":. c #DFDBB1",
">. c #DBEAB1",
",. c #FCEAAC",
"<. c #FCECB8",
"1. c #89C2E6",
"2. c #97CAE9",
"3. c #A0CEEA",
"4. c #A4D0EB",
"5. c #BDDDF1",
"6. c #F7D8DB",
"7. c #F7D7D9",
"8. c #DDE5D6",
"9. c #FDEFC1",
"0. c #E6F1C9",
"q. c #FDF1C9",
"w. c #EFF6DC",
"e. c #ECF4D7",
"r. c #F0F6DF",
"t. c #FEF7DE",
"y. c #C0DFF2",
"u. c #F8DFE1",
"i. c #CBE4F4",
"p. c #D4E9F6",
"a. c #D8EBF7",
"s. c #FBECED",
"d. c #F9E4E6",
"f. c #FEF7E0",
"g. c #F5F9E9",
"h. c #FEFAEB",
"j. c #F4F8E7",
"k. c #EBF5FB",
"l. c #FAFCF3",
"z. c #F1F8FC",
"x. c #FFFFFE",
"c. c #FCF1F2",
/* pixels */
"                                                                                                                                ",
"                                          d d d d d d                   / / / / / / /                                           ",
"                                      d d d d d d d d d d d         / / / ( ] [ ( / / / / /                                     ",
"                                  d d g L <.q.h K t.9.%.h d d     / ( } 5.z.x.x.2.) 3.1.` / /                                   ",
"                                d d H h.x.x.x.j %.x.x.x.h.I d f Q ` p.x.x.x.k.p.] | x.x.z.{ / /                                 ",
"                              d d P l.x.f.-.H d g H -.t.x.q.d d F 8.x.k.2.] ) ( / (  .a.x.z. ./ /                               ",
"                              d K x.x.;.h d d d d d d h L G d d d P i.' / / / / / / / ) 4.x.y./ /                               ",
"                            d d ,.x.,.d d d d d d d d d d d d d d f ^ / / / / / / / / / ( } ` / / /                             ",
"                            d d G P g d d d d d d d d d d d d d d d Q / / / / / / / / / / / / / / /                             ",
"                            d d d d d d d d d d d d d d d d d d d s ..~ ( / / / / / / / ~ W R T m m Z                           ",
"                          d d d d d d d d d d d d d d d d d p * # @ ; - < U ! / / / / E Z V V V V V V V V V                     ",
"                          d d d d d d d d d d d d d d d i $ o o o o o : o o : , _ ^ m V C =.0.j.l.g.&.V V V V                   ",
"                          d d d d d d d d d d d d d d = o > y #.u.e 6 6.6.o.5 o ; n V $.g.x.x.x.l.l.=.D l.>.A V                 ",
"                          d d d d d d d d d d d d d & : t 7.x.x.s.y r s.x.x.s.o.: > N l.x.e.*.D A A V D l.x.w.S V               ",
"                          d d d d d d d d d d d d * o t c.x.s.+.w : : q O.u.x.d.> o 3 :.>.C V V V V V V J g.x.w.C V             ",
"                          d d d d d d d d d d d i o y x.x.@.> o o o o o o > X.e o o o 9 V V V V V V V V V A r.x.J V V           ",
"                          d d d d d d d d d d d % o #.x.+.> o o o o o o o o o o o o o 2 b V V V V V V V V V D =.C V V           ",
"                          d d d d d d d d d d a o o q Y > o o o o o o o o o o o o o o o M V V V V V V V V V V V V V V           ",
"                            d d d d d d d d d * o o o o o o o o o o o o o o o o o o o o 7 V V V V V V V V V V V V V V           ",
"                            d d d d d d d d d $ o o o o o o o o o o o o o o o o o o o o 7 V V V V V V V V V V V V V V           ",
"                            d d d d d d d d d @ o o o o o o o o o o o o o o o o o o o o 0 V V V V V V V V V V V V V V           ",
"                            d d d d d d d d d O o o o o o o o o o o o o o o o o o o o o l V V V V V V V V V V V V V V           ",
"                              d d d d d d d d o o o o o o o o o o o o o o o o o o o o 2 b V V V V V V V V V V V V V V           ",
"                              d d d d d d d d o o o o o o o o o o o o o o o o o o o o 9 V V V V V V V V V V V V V V V           ",
"                                d d d d d d d O o o o o o o o o o o o o o o o o o o : c V V V V V V V V V V V V V V             ",
"                                d d d d d d d @ o o o o o o o o o o o o o o o o o o 8 B V V V V V V V V V V V V V               ",
"                                  d d d d d d $ o o o o o o o o o o o o o o o o o > v V V V V V V V V V V V V V V               ",
"                                    d d d d d & o o o o o o o o o o o o o o o o o k V V V V V V V V V V V V V V                 ",
"                                    d d d d     o o o o o o o o o o o o o o o o 4 B V V V V V V V V V V V V V                   ",
"                                  d d d d d     o o o o o o o o o o o o o o o 1 v V V V V V V V V V V V V V                     ",
"                                    d d d d     o o o o o o o o o o o o o o : x V V V V V V V V V V V V                         ",
"                                        u       o o o o o o o o o o o o o o   B V V V V V V V V V V V                           ",
"                                        .         o o o o o o o o o o o o       V V V V V V V V V                               ",
"                                        .         o o o o o o o o o o o o     V V V V V V V V                                   ",
"                                        .           o o o o o o o o o         V V V V                                           ",
"                                                      o o o o o o o             z B V                                           ",
"                                          .             X o o o o               .                                               ",
"                                          .             X o o o               .                                                 ",
"                                          .             o o o o o           .                                                   ",
"                                                        +     +             .                                                   ",
"                                            .           .     .           .                                                     ",
"                                            .           .     .         .                                                       ",
"                                            .           .     .         .                                                       ",
"                                              .         .             .                                                         ",
"                                              .         .   .         .                                                         ",
"                                                .       .   .       .                                                           ",
"                                                        .   .       .                                                           ",
"                                                  .     .   .     .                                                             ",
"                                                  .         .     .                                                             ",
"                                                    .     . .   .                                                               ",
"                                                    .     .     .                                                               ",
"                                                      .   .   .                                                                 ",
"                                                      .   .   .                                                                 ",
"                                              . . .     . . .                                                                   ",
"                                            .       . . . . .     . .                                                           ",
"                                            .           . . . .       .                                                         ",
"                                              . . . . . . . . .         .                                                       ",
"                                                        . .     . . . .                                                         ",
"                                                        . .                                                                     ",
"                                                        . .                                                                     ",
"                                                          . .                                                                   ",
"                                                        .   .                                                                   ",
"                                                        .                                                                       ",
"                                                      .                                                                         "
};
