/* XPM */
static char *f9459d93e34140cdc37f40222bb4d586x9isYDq5p04o1X2z[] = {
/* columns rows colors chars-per-pixel */
"64 64 245 2 ",
"   c None",
".  c #100704",
"X  c #140A07",
"o  c #170C08",
"O  c #1A0E0A",
"+  c #190B05",
"@  c #1D110C",
"#  c #0F0705",
"$  c #23150D",
"%  c #2B1709",
"&  c #3A1E0A",
"*  c #311A09",
"=  c #2A1D15",
"-  c #301F16",
";  c #3F200A",
":  c #2B221A",
">  c #342214",
",  c #392719",
"<  c #382920",
"1  c #3A3431",
"2  c #461E0A",
"3  c #751F0E",
"4  c #43230C",
"5  c #48290E",
"6  c #552E0B",
"7  c #5A350B",
"8  c #482B14",
"9  c #542E14",
"0  c #4A3618",
"q  c #543214",
"w  c #5B3216",
"e  c #5B3C1B",
"r  c #563619",
"t  c #4F300E",
"y  c #66380D",
"u  c #693B19",
"i  c #71300E",
"p  c #483527",
"a  c #533C2C",
"s  c #583C23",
"d  c #543D32",
"f  c #4A332A",
"g  c #633B24",
"h  c #683F30",
"j  c #6D420D",
"k  c #70430E",
"l  c #6A4417",
"z  c #764918",
"x  c #78531B",
"c  c #685919",
"v  c #5A4227",
"b  c #564538",
"n  c #56522D",
"m  c #624626",
"M  c #764928",
"N  c #6D5628",
"B  c #785729",
"V  c #684B34",
"C  c #6B5637",
"Z  c #7A5B32",
"A  c #755535",
"S  c #794C32",
"D  c #625F2C",
"F  c #443C54",
"G  c #204D79",
"H  c #564A45",
"J  c #4D4958",
"K  c #6A5B4F",
"L  c #7A6952",
"P  c #6E6967",
"I  c #586A67",
"U  c #863912",
"Y  c #903C0F",
"T  c #9C3922",
"R  c #8B4716",
"E  c #984A1B",
"W  c #895419",
"Q  c #945C1C",
"!  c #A94B14",
"~  c #B24E13",
"^  c #AA531B",
"/  c #B85517",
"(  c #8A671D",
")  c #97651C",
"_  c #874B25",
"`  c #855824",
"'  c #975729",
"]  c #845C34",
"[  c #875939",
"{  c #975B34",
"}  c #A95926",
"|  c #AC5621",
" . c #89632A",
".. c #986828",
"X. c #95762B",
"o. c #876735",
"O. c #986936",
"+. c #95733C",
"@. c #9A753A",
"#. c #A76A25",
"$. c #BC6822",
"%. c #A97524",
"&. c #A66A35",
"*. c #A47A37",
"=. c #B67636",
"-. c #B36E2C",
";. c #A06B1F",
":. c #CA621D",
">. c #D3641D",
",. c #C86B23",
"<. c #DB6E21",
"1. c #C57225",
"2. c #D77725",
"3. c #CA7C35",
"4. c #D87936",
"5. c #E57726",
"6. c #C55918",
"7. c #875D42",
"8. c #8B6844",
"9. c #966648",
"0. c #8B7348",
"q. c #9C7B43",
"w. c #977848",
"e. c #947754",
"r. c #89745B",
"t. c #A57844",
"y. c #A26F51",
"u. c #AE7A5A",
"i. c #A97555",
"p. c #B37D5D",
"a. c #B77857",
"s. c #AC7149",
"d. c #877969",
"f. c #987A62",
"g. c #C1794D",
"h. c #7DAD33",
"j. c #5C8445",
"k. c #6E8659",
"l. c #7E9063",
"z. c #BB973A",
"x. c #AB8239",
"c. c #81A834",
"v. c #DC8928",
"b. c #CD8539",
"n. c #CC8D32",
"m. c #E38D25",
"M. c #E4892A",
"N. c #F1862E",
"B. c #E7932B",
"V. c #E69937",
"C. c #EE8A32",
"Z. c #CAA53F",
"A. c #E5AD3D",
"S. c #968956",
"D. c #908A54",
"F. c #AC8443",
"G. c #A4844A",
"H. c #A9874A",
"J. c #B38C49",
"K. c #BB964A",
"L. c #A98A54",
"P. c #B98759",
"I. c #B59352",
"U. c #BC9A54",
"Y. c #BA9958",
"T. c #AF9358",
"R. c #948777",
"E. c #8B8969",
"W. c #BA8262",
"Q. c #B88766",
"!. c #B59471",
"~. c #B6A268",
"^. c #C8874A",
"/. c #D58D49",
"(. c #C49C4C",
"). c #D99349",
"_. c #C88957",
"`. c #C19D55",
"'. c #C29E5B",
"]. c #D69655",
"[. c #E4974B",
"{. c #C5A45D",
"}. c #C9A55C",
"|. c #D3B155",
" X c #E5B448",
".X c #C58A68",
"XX c #C8946E",
"oX c #CC9671",
"OX c #CB9A74",
"+X c #D39C74",
"@X c #D59773",
"#X c #D08865",
"$X c #CDAD63",
"%X c #C9AA67",
"&X c #D4B56A",
"*X c #D4A37B",
"=X c #DBA47C",
"-X c #DAAA7E",
";X c #D5A478",
":X c #D6B972",
">X c #D4AF66",
",X c #E6A975",
"<X c #DDC47A",
"1X c #D9C563",
"2X c #E2C57A",
"3X c #ECD164",
"4X c #ECC64C",
"5X c #3C77A5",
"6X c #42458A",
"7X c #798987",
"8X c #6FB0B5",
"9X c #5AACD4",
"0X c #AE9D83",
"qX c #B5AB93",
"wX c #ADA393",
"eX c #DAAB81",
"rX c #D8A780",
"tX c #DDB285",
"yX c #D9B68A",
"uX c #CFAD8B",
"iX c #E1AC85",
"pX c #E7AF89",
"aX c #E3B58B",
"sX c #E4BB8D",
"dX c #E0B985",
"fX c #E5BD93",
"gX c #ECBE95",
"hX c #C5BBA8",
"jX c #E4CA83",
"kX c #E5C58A",
"lX c #EAD389",
"zX c #ECC59A",
"xX c #EDC99D",
"cX c #E9C296",
"vX c #F0DA94",
"bX c #EDCBA3",
"nX c #EFCFAA",
"mX c #F2CAA5",
"MX c #F1D2AD",
"NX c #F4DFAD",
"BX c #F2D7B4",
"VX c #F4E3A4",
"CX c #F5E6B2",
"ZX c #DFC381",
"AX c #E5E0D2",
/* pixels */
"                                                                                                                                ",
"                                                                                                                                ",
"                                                                          H.                                                    ",
"                                    jX<X<XjXjX                          V.$.V.                                                  ",
"                                <X>X$X$X$X&X:X<X                        B.1.B.B.V.                                              ",
"                              :X{.}.$X$X$X$X&X&X:X                      v.v.B.B.v.3.n.V.                                        ",
"                              '.{.{.}.}.}.}.$X>X>X<X                  V.1.m.v.^.].D.J./.b.[.).                                  ",
"                            $X`.`.`.`.`.Y.I.I.I.}.&X:X                V.$.m.b.].D.k.D.).).V.).).].                              ",
"                            `.U.K.J.F.*.N > s Z q.J.%X                B.1.m.s.Y.1X3X$XI.[.V.)././.^.                            ",
"                            `.J.F.+.B > O o O $ > N H.                2.v.v.t.k.l.l.E.S.b.V.V.).]./._.                          ",
"                            '.F.+.e o . . . X O O @ $ 0.            V.1.m.m.b.[.i.P.,X[.V.V.V.).^.^.^.                          ",
"                              O.e $ - a , $ O o X . @ A Y.          V.$.m.m.m.b._._./.V.V.                                      ",
"                               .> L r.uXbXzXeX9.> X o $ A           v.1.m.m.B.B.V.V.                                            ",
"                                L 0XMXMXnX!.e.XXp.p O o m L.        L.                                                          ",
"                              d.BXBXMXMXMXbXQ.L Q.u.p o > w.        8.                                                          ",
"                              BXbXbXMXMXbXcXaX!.Q.XXi.< O N       A                                                             ",
"                              MXqXa nXbXuXd.f.*X*XOX.XV @ 8       V                                                             ",
"                            mXmXbXbXfX=XfXyXaXaXiX*XOXQ.p >       C                                                             ",
"                          nXmXmXbXbXiXrXxXgXpX=X@X@XoXXXv 7.a.p.H C         q.                                                  ",
"                          mXxX=Xa.yXyXrX+XiXpX=X@X#X.X.XQ.p.a.#XA P K       B                                                   ",
"                        BXmXzXrXuXAXAXhXR.Q.aX=X@X.XW.W.W.p.a.#X8.u K V     ]                                                   ",
"                        BXbXxXbXbXbXfXrX-XsXfX-XoX.XW.p.p.u.a.a.7.a 3 g [ W.`                                                   ",
"                        nXxXxXxXxXxXfXeXeXtXsX-XXXW.p.u.u.i.y.u.V A A T K u.M                                                   ",
"                        zXxXxXxXcXsXiX-X=X-X-X+X.XW.u.i.i.S S u 4 2 z _ _ q.] o.                                                ",
"                        _.xXxXxXcXsXtX-X=X=X;XoX.Xp.i.y.9.E & 7 & t R Q 3 6 O.w.                                                ",
"                      C.' zXxXxXxXcXsXtX-X;X+XXXW.u.y.{ E R k j 4 w 3 ) w u  .@.                                                ",
"                    4XC.5.kXcXxXxXcXsXtX-X+XoX.Xp.9.} ~ Y W Q z 6 & y ` e g z  .                                                ",
"                U.|. XV.C.M.2XeXcXfXaXeX*XoXQ.i.&.:./ Y k W W Q y 6 y f M g M B G.                                              ",
"            CXVXqX|. XC.N.N.vXlX;XrXeX*XXXP.s.,.>./ ! i z Q #.E ! y k l V   g ] q.                                              ",
"          CXVXvXF.Z.A.n.N.N.vXjX=.'.XXXX_.4.5.>.6.~ U i ) %.;.^ oXuX] u b a g ] G.                                              ",
"        BXNXVXjXkX>XA.) _.5.,X3.N.M.}. X5.<.>./ ~ ! i W %.%...F.:X|.(.F.d H     X.L.                                            ",
"        BXMXkXxXxXiXO.` !.E.:.5.5.2.| 5.>./ ~ ~ ~ ~ R ) %.%.@.}.lXlX2X:XT.H     ` +.                                            ",
"        bXMXMXmXcX=X] o.v AXB :XK.(.(.F.U ! ^ -...z z P.=X;X+X%XjXlXZX:X%XL.f   B H.                                            ",
"        eXcXbXgXiX.X` S.~.9Xx 0.2X|.}.J. .H.:XI.N l W P.aXiX@X@X+XaXsXrXOXQ.d   o.G.Z                                           ",
"            tXaXoXy...E.7Xr h.z.>X,.R ,...t.I.*.X.B W O.OX=XXX.X.XrXeX*XoXQ.9.  Z @.+.                                          ",
"              s.{ _ X.S.o.e c.Z.,.U U 5.,.&.Y.(.-.W x x P.@X.X.X.X*X*XXXW.i.9.q l O.H.w.                                        ",
"            _.^.&._ D.x 8 8 x *.i i U 2.:.#.F.I.U.U.t.x ` 9.y.i.y.u.i.y.9.8.] Z B *.Y.L.                                        ",
"            ^.g.' w X.S.8 8 8 E.~ ^ z Q ~ ^ @.I.Y.I.H.` k k j t l 8 r l           ..F.H.~.yX                                    ",
"              =.' _ u u.x N 8Xo./ / x ` <.1.q.H.L.I.q.B k j k 7 % 2 6 j          .#.H.T.o.G.                                    ",
"              ' _ u q P B C 5XG 5 Z 0XW <.1.q.e.r.w.+.+.` z j 7 t & e           ` ..Z +.q.                                      ",
"              ' _ 4 q :X-.' J C =.X.D...1.} o.0.0.w.q.@.+.o.- & $ = p                                                           ",
"              { z 4 4 *.R qXz r !.} p d.9.1 , Z q.q.q.q.+.8 t > > , V                                                           ",
"            ' ' u 4 ] z.*.o.0.I ' ' ..L I C c 0 0 B Z m > q m : : p V                                                           ",
"              _ w 0   (.x.B e.6XJ q E W 7 z { ..@.Z N e 0 Z v : $ <                                                             ",
"                      X.G.o.G.{.X.( ( u &.O.e V e.A h m 0 b < : = ,                                                             ",
"                      z.D I.H.&X$XX.(  .w.9.S J 1 5 5 p a F f , :                                                               ",
"                      z.D {.I.Y.$X$X~.7XR.b d F b u 9 v , p                                                                     ",
"                      (.j.m H.H.}.%X}.~.0.z i u l l 5 7 r s                                                                     ",
"                      K.j.m w m G.Y.P.}.%XI.{ ` c D l s f                                                                       ",
"                      A s   w ; * 8 N o.0.s ; * % * & 4 & ,                                                                     ",
"                      r     u w 9 4 r 0 * 4 t t 9 9 4 4 ; ;                                                                     ",
"                                w t ; 5 r q w w 9 9 t q a                                                                       ",
"                                Q.9.[ S V H   A M M [ 7.r.                                                                      ",
"                                  hXqX0XP     hX0Xf.f.d.                                                                        ",
"                                  Q.R.d.K       qXwXR.d.                                                                        ",
"                                3.| 4 , < $     b { } '                                                                         ",
"                              V r 5 $ . . #       M ^ E                                                                         ",
"                            b p % + . . @         0 q s V                                                                       ",
"                            K = O @ =             s m 0 -                                                                       ",
"                                                  - f f =                                                                       ",
"                                                                                                                                ",
"                                                                                                                                ",
"                                                                                                                                ",
"                                                                                                                                "
};
