/* XPM */
static char *_3ba073b76a445a1a8984933801bd2abDfTGGg8xKOpwcvt2[] = {
/* columns rows colors chars-per-pixel */
"64 64 245 2 ",
"   c None",
".  c #100704",
"X  c #140A07",
"o  c #170C08",
"O  c #1A0E0A",
"+  c #190B05",
"@  c #1D110C",
"#  c #0F0705",
"$  c #23150D",
"%  c #2B1709",
"&  c #3A1E0A",
"*  c #311A09",
"=  c #2A1D15",
"-  c #301F16",
";  c #3F200A",
":  c #2B221A",
">  c #342214",
",  c #392719",
"<  c #382920",
"1  c #3A3431",
"2  c #461E0A",
"3  c #751F0E",
"4  c #43230C",
"5  c #48290E",
"6  c #552E0B",
"7  c #5A350B",
"8  c #482B14",
"9  c #542E14",
"0  c #4A3618",
"q  c #543214",
"w  c #5B3216",
"e  c #5B3C1B",
"r  c #563619",
"t  c #4F300E",
"y  c #66380D",
"u  c #693B19",
"i  c #71300E",
"p  c #483527",
"a  c #533C2C",
"s  c #583C23",
"d  c #543D32",
"f  c #4A332A",
"g  c #633B24",
"h  c #683F30",
"j  c #6D420D",
"k  c #70430E",
"l  c #6A4417",
"z  c #764918",
"x  c #78531B",
"c  c #685919",
"v  c #5A4227",
"b  c #564538",
"n  c #56522D",
"m  c #624626",
"M  c #764928",
"N  c #6D5628",
"B  c #785729",
"V  c #684B34",
"C  c #6B5637",
"Z  c #7A5B32",
"A  c #755535",
"S  c #794C32",
"D  c #625F2C",
"F  c #443C54",
"G  c #204D79",
"H  c #564A45",
"J  c #4D4958",
"K  c #6A5B4F",
"L  c #7A6952",
"P  c #6E6967",
"I  c #586A67",
"U  c #863912",
"Y  c #903C0F",
"T  c #9C3922",
"R  c #8B4716",
"E  c #984A1B",
"W  c #895419",
"Q  c #945C1C",
"!  c #A94B14",
"~  c #B24E13",
"^  c #AA531B",
"/  c #B85517",
"(  c #8A671D",
")  c #97651C",
"_  c #874B25",
"`  c #855824",
"'  c #975729",
"]  c #845C34",
"[  c #875939",
"{  c #975B34",
"}  c #A95926",
"|  c #AC5621",
" . c #89632A",
".. c #986828",
"X. c #95762B",
"o. c #876735",
"O. c #986936",
"+. c #95733C",
"@. c #9A753A",
"#. c #A76A25",
"$. c #BC6822",
"%. c #A97524",
"&. c #A66A35",
"*. c #A47A37",
"=. c #B67636",
"-. c #B36E2C",
";. c #A06B1F",
":. c #CA621D",
">. c #D3641D",
",. c #C86B23",
"<. c #DB6E21",
"1. c #C57225",
"2. c #D77725",
"3. c #CA7C35",
"4. c #D87936",
"5. c #E57726",
"6. c #C55918",
"7. c #875D42",
"8. c #8B6844",
"9. c #966648",
"0. c #8B7348",
"q. c #9C7B43",
"w. c #977848",
"e. c #947754",
"r. c #89745B",
"t. c #A57844",
"y. c #A26F51",
"u. c #AE7A5A",
"i. c #A97555",
"p. c #B37D5D",
"a. c #B77857",
"s. c #AC7149",
"d. c #877969",
"f. c #987A62",
"g. c #C1794D",
"h. c #7DAD33",
"j. c #5C8445",
"k. c #6E8659",
"l. c #7E9063",
"z. c #BB973A",
"x. c #AB8239",
"c. c #81A834",
"v. c #DC8928",
"b. c #CD8539",
"n. c #CC8D32",
"m. c #E38D25",
"M. c #E4892A",
"N. c #F1862E",
"B. c #E7932B",
"V. c #E69937",
"C. c #EE8A32",
"Z. c #CAA53F",
"A. c #E5AD3D",
"S. c #968956",
"D. c #908A54",
"F. c #AC8443",
"G. c #A4844A",
"H. c #A9874A",
"J. c #B38C49",
"K. c #BB964A",
"L. c #A98A54",
"P. c #B98759",
"I. c #B59352",
"U. c #BC9A54",
"Y. c #BA9958",
"T. c #AF9358",
"R. c #948777",
"E. c #8B8969",
"W. c #BA8262",
"Q. c #B88766",
"!. c #B59471",
"~. c #B6A268",
"^. c #C8874A",
"/. c #D58D49",
"(. c #C49C4C",
"). c #D99349",
"_. c #C88957",
"`. c #C19D55",
"'. c #C29E5B",
"]. c #D69655",
"[. c #E4974B",
"{. c #C5A45D",
"}. c #C9A55C",
"|. c #D3B155",
" X c #E5B448",
".X c #C58A68",
"XX c #C8946E",
"oX c #CC9671",
"OX c #CB9A74",
"+X c #D39C74",
"@X c #D59773",
"#X c #D08865",
"$X c #CDAD63",
"%X c #C9AA67",
"&X c #D4B56A",
"*X c #D4A37B",
"=X c #DBA47C",
"-X c #DAAA7E",
";X c #D5A478",
":X c #D6B972",
">X c #D4AF66",
",X c #E6A975",
"<X c #DDC47A",
"1X c #D9C563",
"2X c #E2C57A",
"3X c #ECD164",
"4X c #ECC64C",
"5X c #3C77A5",
"6X c #42458A",
"7X c #798987",
"8X c #6FB0B5",
"9X c #5AACD4",
"0X c #AE9D83",
"qX c #B5AB93",
"wX c #ADA393",
"eX c #DAAB81",
"rX c #D8A780",
"tX c #DDB285",
"yX c #D9B68A",
"uX c #CFAD8B",
"iX c #E1AC85",
"pX c #E7AF89",
"aX c #E3B58B",
"sX c #E4BB8D",
"dX c #E0B985",
"fX c #E5BD93",
"gX c #ECBE95",
"hX c #C5BBA8",
"jX c #E4CA83",
"kX c #E5C58A",
"lX c #EAD389",
"zX c #ECC59A",
"xX c #EDC99D",
"cX c #E9C296",
"vX c #F0DA94",
"bX c #EDCBA3",
"nX c #EFCFAA",
"mX c #F2CAA5",
"MX c #F1D2AD",
"NX c #F4DFAD",
"BX c #F2D7B4",
"VX c #F4E3A4",
"CX c #F5E6B2",
"ZX c #DFC381",
"AX c #E5E0D2",
/* pixels */
"                                                                                                                                ",
"                                                                                                                                ",
"                                    H.                                                                                          ",
"                                  V.$.V.                          jXjX<X<XjX                                                    ",
"                              V.B.B.1.B.                        <X:X&X$X$X$X>X<X                                                ",
"                        V.n.3.v.B.B.v.v.                      :X&X&X$X$X$X$X}.{.:X                                              ",
"                  ).).b./.J.D.].^.v.m.1.V.                  <X>X>X$X}.}.}.}.{.{.'.                                              ",
"              ].).).V.).).D.k.D.].b.m.$.V.                :X&X}.I.I.I.U.`.`.`.`.`.$X                                            ",
"            ^./.).).V.[.I.$X3X1XY.s.m.1.B.                %XJ.q.Z s > N *.F.J.I.U.`.                                            ",
"          _./.].).V.V.b.S.E.l.l.k.t.v.v.2.                H.N > $ O o O > B +.F.J.`.                                            ",
"          ^.^.^.).V.V.V.[.,XP.i.[.b.m.m.1.V.            0.$ @ O O X . . X o e +.F.'.                                            ",
"                      V.V./._._.b.m.m.m.$.V.          Y.A @ . X + @ $ , a - $ e O.                                              ",
"                            V.V.B.B.m.m.1.v.          A $ o X > 9.eXzXbXuXr.L >  .                                              ",
"                                          L.        L.m o O f p.XXe.!.nXMXMX!.L                                                 ",
"                                          8.        w.> o p u.Q.L R.bXMXMXMXBXBXd.                                              ",
"                                            A       N O < y.XXQ.!.yXcXbXMXnXbXbXBX                                              ",
"                                            V       8 @ V .XOX*X*Xf.d.uXbXnXa qXMX                                              ",
"                                            C       > p Q.OX*XiXaXaXyXfX=XfXbXmXmXmX                                            ",
"                                  q.        C H p.a.7.v XXoX@X@X=XpXgXzXrXiXbXmXmXmXnX                                          ",
"                                  B       K P A #Xg.p.Q..X.X#X@X=XpXiX+XeXyXyXp.=XzXmX                                          ",
"                                  ]     V K u 8.#Xa.p.W.W.W..X@X=XaXQ.R.hXAXAXuXeXzXmXBX                                        ",
"                                  ` W.[ g 3 a 7.a.u.u.p.p.W..XoX-XfXaX-XeXfXbXbXbXxXbXBX                                        ",
"                                  M u.K T A A V u.y.i.u.u.p.W.XX*XaXtX-XtXfXxXxXxXxXxXnX                                        ",
"                                o.] w._ _ z 2 4 u S S i.i.u.W..X+X-X-X=X-XdXsXcXxXxXzXzX                                        ",
"                                w.O.6 3 Q R 5 & 7 & E 9.y.i.p..XoX;X=X=X-XtXsXcXxXxXxXP.                                        ",
"                                @. .u w ;.i w 4 j k R E { y.u.W.XX+X;X-XtXsXcXzXxXxXzX' C.                                      ",
"                                 .z g u ` y & 6 z Q W Y ~ } 9.p..XoX;X-XdXsXcXzXxXcXkX5.C.4X                                    ",
"                              G.B M g M f y 6 y Q W W k Y / :.&.i.Q.oX*XeXaXfXcXeX2XM.N.V.A.|.U.                                ",
"                              q.] g   V l k y ! E #.Q z i ! / >.,.s.p.XX*XeXeX;XlXvXN.N.B. X|.qXVXCX                            ",
"                              G.] g a b u ] uXoX^ ;.%.) u U ~ 6.>.5.4._.XXXX'.=.jXvXN.N.n.A.Z.F.vXVXCX                          ",
"                            L.O.    H d F.(.|.:XF...%.%.W i ! ~ / >.<.5. X}.M.N.3.,X5._.) A.>XkXjXVXNXBX                        ",
"                            +.`     H T.:X2XlXlX}.@.%.%.) R ~ ~ ~ ~ / >.5.| 2.5.5.:.E.!.` O.iXzXzXkXMXBX                        ",
"                            H.B   f L.%X:XZXlXjX%X+X;X=XP.z z ..-.^ ! U F.(.(.K.:XB AXv o.] =XcXmXMXMXbX                        ",
"                          Z G.o.  d Q.OXrXaXaX+X@X@XiXaXP.W z N I.:XH. .J.}.|.2X0.z 9X~.S.` .XiXcXbXcXtX                        ",
"                          +.@.Z   9.Q.oX*XeXeX.X.XoX=XOXO.W x X.*.I.t...,.R ,.>Xz.h.r 7XE...y.oXaXtX                            ",
"                        w.H.O.l q 9.i.W.XX*X*X.X.X.X@XP.x x W %.K.U.&.$.5.U U ,.Z.c.e o.S.X._ { s.                              ",
"                        L.I.*.B Z ] 8.9.y.i.u.y.i.y.9.` x t.U.U.I.F.#.:.2.U 3 i *.x 8 8 x D._ &.^._.                            ",
"                    yX~.H.F...          l r 8 l t j j k ` H.Y.Y.I.@.} ! Q z ~ ~ E.0 8 8 S.X.w ' g.^.                            ",
"                    G.o.T.H.#. .        j 6 2 % 7 k j k B q.I.L.H.@.1.<.` x / / o.8XN x u.u _ ' =.                              ",
"                      q.+.Z ..`           e & t 7 j z ` +.+.w.r.e.@.1.<.W 0XZ 5 G 5XC B P q u _ '                               ",
"                                          p = $ & - o.+.@.q.w.0.0.o.} $...D.X.=.C J { -.:Xq 4 _ '                               ",
"                                          V , > > t 8 +.q.q.q.q.Z , 1 9.d.p } !.r z qXR *.4 4 z {                               ",
"                                          V p : : m q - m Z B 0 0 c C I L ..' ' I 0.o.*.z.] 4 u ' '                             ",
"                                            < $ : s Z 0 e N Z @...{ z 7 W E q J 6Xe.B x.(.  9 w _                               ",
"                                            , = : < b 0 m h A e.V e O.&.u ( ( X.{.G.o.G.O.                                      ",
"                                              : , f F a p 5 5 1 J S 9.w. .( X.$X&XH.I.D z.                                      ",
"                                                    f , v 9 u b F d b R.7X~.$X$XY.Y.{.D z.                                      ",
"                                                    s r 7 5 l l u i z 0.~.%X$X%XH.H.m j.Z.                                      ",
"                                                      f s z D c ` { I.%X}.P.Y.G.m w m j.K.                                      ",
"                                                    , & 4 & * % * ; s 0.o.N 8 * ; w   s A                                       ",
"                                                    , ; ; 4 9 9 t 5 4 * 0 r 4 9 w u     r                                       ",
"                                                      a q 5 9 9 w w q r 5 ; 5 w                                                 ",
"                                                      r.7.[ M M A   H V S [ 9.Q.                                                ",
"                                                        d.f.f.0XhX    P 0XqXhX                                                  ",
"                                                        d.R.wXqX      K d.R.Q.                                                  ",
"                                                        ' } { b     $ < , 4 | 3.                                                ",
"                                                        E ^ M       # # . % 5 e V                                               ",
"                                                      V s q 0         @ X . + % p b                                             ",
"                                                      - 0 m s             = @ O = K                                             ",
"                                                      = f f -                                                                   ",
"                                                                                                                                ",
"                                                                                                                                ",
"                                                                                                                                ",
"                                                                                                                                "
};
