/* XPM */
static char *wall__1_1711797293[] = {
/* columns rows colors chars-per-pixel */
"64 64 28 1 ",
"  c None",
". c #AEBDC9",
"X c #B1BFCB",
"o c #B4C2CD",
"O c #B8C4CF",
"+ c #B7C4D0",
"@ c #B9C6D1",
"# c #BEC9D3",
"$ c #C1CCD6",
"% c #C4CFD8",
"& c #C6D1D9",
"* c #CBD4DC",
"= c #CFD8DF",
"- c #D0D8DF",
"; c #CFD8E0",
": c #D4DCE2",
"> c #D8DFE5",
", c #DBE1E6",
"< c #DEE4E9",
"1 c #E1E6EB",
"2 c #E5E9ED",
"3 c #E8ECEF",
"4 c #EAEEF1",
"5 c #EEF1F3",
"6 c #F2F4F6",
"7 c #F5F7F8",
"8 c #F7F8F9",
"9 c #FBFCFC",
/* pixels */
"                                                                ",
"                                                                ",
"                                                                ",
"                                                                ",
"                                                                ",
"                                                                ",
"                                                                ",
"                                                                ",
"                                                                ",
"                                                                ",
"                                 #####%                         ",
"                              #$&*:>:::=*%%                     ",
"                            #$=:,1133111<>=&                    ",
"                           $*:<34545544431<,*%                  ",
"                         O%-,346677766554421,=$                 ",
"                        O&:<45788888787665521,=#                ",
"                 #%*;>,>*=13568999999997776531,*@               ",
"                %&;>14542>>4688999999998976652<:%               ",
"              ##&:,4677663136899999999997876552<*@              ",
"              $*:<47899966667899999999988977552<=#o             ",
"             #&:<5689999887699999999999998775541:%o             ",
"            +%=,36899999988899999999999977766541>&o             ",
"            @*>157999999998899999999999998876541,*O.            ",
"            #:<2569999999998899999999988989751<,:*#.            ",
"            %:,1255899998898899999999999862,,1<11,,:*%          ",
"          *:><111355888988989999999999981,1133333331>:*%        ",
"        &:<3466765566888888889989999995,<3455656654431,=%       ",
"      #&:14678898887689888887656889991>3466768887666431,-&#     ",
"     #&:15789999999998888751<>>>>><3<<468989999988866443<-%     ",
"    #%=<468999999999998863><334432<><57999999999998866421<=$    ",
"    #*,46889999999999986114666666443699999999999999876543<>*#   ",
"   #&:1578999999999999855787676766669999999999999999865441<-%   ",
"   #*,3688999999999999768888778967689999999999999999865541<>&@  ",
"  @%=<4568889999999999898999899988899999999999999988666442<,;#  ",
"  @%:<4568999999999999899999999998899999999999998887655532<,=## ",
"  #&>1356689999999999999999999999999999999999999887665443<<,=%@ ",
"  #*:13466689999999999998899999999999999999999898766544331<:=$O ",
"  #%:<3346667999999989889999999999999999999988886665543211,:*#o ",
"  @%-,133666679999999988788999999999999998887766665443131<>:&#O ",
"  #$=>123444666888998777777899999999899988866665554423211>:=%#o ",
"  @#*:<122444676687767666666778999888888666656555432321<>>=*#O  ",
"  O@%;><1122444466645454446666778866666666555554333211<,::=%#X  ",
"   O#&:><<1133343244424344444444555555555554443322111,,>:=%$oo  ",
"   o@%*->>,<<11113111111122234442333233333333211211,,,:-*%$+X   ",
"    o#$**;::>>,,,,,,,>,<<<<1121111<<<<<<<<<<<<<<<<,::-=*%%OoX   ",
"    XoO#%*=;:::>>>>::>::>:>>>,,>,>>>:>:>,,>>,,>,:::-=*&$#Oo.    ",
"     ooO##%&%&*&*******&***=-===;*****&******;*****%$%##Oo.     ",
"      Xo+@###$%#$##%########$$#$#%##@##########%%#%##@OoX.      ",
"        Xo++@@@++@@@oOOooooooooooo+oooooooooooo@OOOOoooX.       ",
"         XooooooooooooXXX.........XX...X.XXXXXooooooXXX         ",
"             oooooXX...X.............XXXXXXXoXoXoo.o            ",
"                                                                ",
"                                                                ",
"                                                                ",
"                                                                ",
"                                                                ",
"                                                                ",
"                                                                ",
"                                                                ",
"                                                                ",
"                                                                ",
"                                                                ",
"                                                                ",
"                                                                "
};
