/* XPM */
static char *c13668a3970c42bafeb139b333edabb29UvZ3Z7M81JPNAPc[] = {
/* columns rows colors chars-per-pixel */
"39 64 131 2 ",
"   c None",
".  c #9E0015",
"X  c #A20017",
"o  c #A60019",
"O  c #AB001C",
"+  c #B0001F",
"@  c #B40023",
"#  c #B80027",
"$  c #BC002B",
"%  c #BE0031",
"&  c #C1002E",
"*  c #D71E23",
"=  c #C30034",
"-  c #C90036",
";  c #C6013A",
":  c #CC003C",
">  c #D1003E",
",  c #CD0343",
"<  c #CF0649",
"1  c #CE0849",
"2  c #D40143",
"3  c #D90246",
"4  c #D00847",
"5  c #D4044B",
"6  c #DC044A",
"7  c #D30A4C",
"8  c #DC084E",
"9  c #DD0551",
"0  c #D50C51",
"q  c #DC0C53",
"w  c #DC0C58",
"e  c #D41253",
"r  c #DA1256",
"t  c #D61956",
"y  c #D5165A",
"u  c #DD1459",
"i  c #D6185D",
"p  c #DC1B5D",
"a  c #E1064D",
"s  c #E0084D",
"d  c #E40650",
"f  c #E40B53",
"g  c #EA0D56",
"h  c #E40F5C",
"j  c #EB0E59",
"k  c #E31056",
"l  c #E3145A",
"z  c #ED115A",
"x  c #E41A5D",
"c  c #ED185F",
"v  c #F1135C",
"b  c #D7205E",
"n  c #DC1E63",
"m  c #EB1561",
"M  c #E61B62",
"N  c #F31C64",
"B  c #DB2662",
"V  c #DC2965",
"C  c #DC276A",
"Z  c #DB2D6B",
"A  c #DE2F71",
"S  c #DF3576",
"D  c #E42263",
"F  c #ED2266",
"G  c #E62169",
"H  c #EC226A",
"J  c #E52D6A",
"K  c #EA2B6C",
"L  c #F5266A",
"P  c #F32C6F",
"I  c #E3316D",
"U  c #E72E72",
"Y  c #EE2F74",
"T  c #F42B71",
"R  c #F82E72",
"E  c #EC3573",
"W  c #E43D76",
"Q  c #EB3B76",
"!  c #E03C7A",
"~  c #EC3B79",
"^  c #F73576",
"/  c #F53C7C",
"(  c #FA3E7D",
")  c #EF4081",
"_  c #E44C83",
"`  c #EB4A84",
"'  c #FA4180",
"]  c #F44882",
"[  c #F84884",
"{  c #E65386",
"}  c #EB5387",
"|  c #F1518C",
" . c #F2538A",
".. c #F8578E",
"X. c #FA548D",
"o. c #EA5992",
"O. c #FC5991",
"+. c #EA659A",
"@. c #EB669B",
"#. c #E96999",
"$. c #EE6F9C",
"%. c #F2679B",
"&. c #F86598",
"*. c #F9669A",
"=. c #FB679A",
"-. c #F26999",
";. c #F76F9F",
":. c #FD6D9F",
">. c #EC6DA1",
",. c #EF7FA9",
"<. c #F573A0",
"1. c #F674A1",
"2. c #F37DAB",
"3. c #FC7BA8",
"4. c #FA7EAC",
"5. c #F080AA",
"6. c #FE85B0",
"7. c #F28FB7",
"8. c #FB8DB4",
"9. c #F58EB8",
"0. c #F792B7",
"q. c #F698BF",
"w. c #FB98BC",
"e. c #FB98BE",
"r. c #FA9CBF",
"t. c #FE9DC0",
"y. c #F9ACCA",
"u. c #FCACCB",
"i. c #FDAECD",
"p. c #FCB6D3",
"a. c #FDB7D3",
/* pixels */
"                                                                              ",
"                                                                              ",
"                                                                              ",
"                              6 6 5 3 3 3 6 6 a                               ",
"                          : , , , , , : , , 2 2 3 a                           ",
"                      % = ; : : , , , , 1 1 4 4 4 2 2 6                       ",
"                    @ $ % ; : , 1 1 < 7 e t t t e 7 4 2 6                     ",
"                  O # $ = ; 1 < 7 e y b B V V B p e 7 4 2 6                   ",
"                o O # $ = ; < 0 i Z ! _ { _ W I D p r 7 5 2 6                 ",
"              X O @ # $ = ; 1 e C _ #.,.5.$.} Q J D p u q 5 6 6               ",
"            X o O @ # $ = ; 1 y S +.7.y.y.0.-.` E D D x u q 6 3               ",
"            X o O @ # $ = ; 1 i ! >.q.a.a.r.<. .Q K D x l q 6 2 6             ",
"          X o o + @ # $ = ; 1 y S +.9.u.i.w.1. .Q K D l q 8 3 2 2             ",
"          X o O + @ # $ = ; 1 y A o.2.w.t.8.;. .~ K D l q 6 2 2 2 6           ",
"          X o O @ @ # $ = ; 1 e C ` %.4.6.3.&. .~ K D l q 6 3 2 2 3           ",
"        . X o O @ @ # $ = ; 1 0 n ~ | &.:.&...] E K M l q 6 3 2 2 2           ",
"        . X o O @ # # $ = ; 1 0 p U ) X.O...[ / K F x k 8 6 3 2 2 3 a         ",
"        . X o O @ # # % = : < 0 u G Y / ' ( ^ P F c l f 6 6 3 2 2 3 a         ",
"        . X o O @ # # % = : < 5 w M H T R R L N c z g d 6 3 3 2 2 3 6         ",
"        . X o O @ # # = ; : 5 5 q h m N N N N v z g f d 6 3 2 2 2 3 a         ",
"        . X o O + @ # % ; : 5 5 9 f j j v v v v z g g d 6 3 2 2 2 3 a         ",
"        . X o O O @ # % = ; , 5 5 9 f g j j j j j g g d a 3 2 2 2 6 a         ",
"        . X o O O @ # $ = = : , 4 3 6 a f g g g g g g d s 3 2 > 2 3 d         ",
"        . . o o O @ # # $ = ; - : 2 3 6 d f g g g g f d 6 2 > > 2 3 f         ",
"        . . X o O @ # # $ $ = ; - 2 3 6 d d g g g f d s 3 > : : > 3 d         ",
"          X X o O @ @ # # $ = ; : 2 3 8 q f f f d s 6 3 2 : - : > 6           ",
"          o o o O @ @ # # $ = ; : 2 5 8 q f q q q 6 3 2 > - - - > 6           ",
"            O O O @ @ # # $ = ; , 4 5 0 q q q q 8 6 2 > : - - : 2 a           ",
"            # # @ @ @ # # $ = ; , 5 5 0 q q r q 5 2 2 : - - - : 3             ",
"              = $ # @ # # $ = - , , 5 5 0 q 0 7 3 2 > : - - - > 6             ",
"                = $ # # # # = ; : , 4 5 5 7 7 4 2 > : : - - : 3               ",
"                  : & # # # & = - : , 2 2 2 2 : : : : : - - > 6               ",
"                  2 - $ # # $ = - : : : : : : : : : : : - : 2                 ",
"                    2 - & # $ = - : : : : : > > > > : : : 2 6                 ",
"                      2 : = $ & = : : > > > > > > > > > > 3                   ",
"                        3 > - = = : > > > > > > > > > 2 3                     ",
"                            2 : : : > > > > > > 2 2 3 3                       ",
"                              3 2 > 2 2 2 2 2 2 2 3 6 a                       ",
"                                6 3 2 2 2 2 2 2 3 6                           ",
"                                    6 6 2 2 : :                               ",
"                                            @ @                               ",
"                                            o X                               ",
"                                                                              ",
"                                                                              ",
"                                                                              ",
"                                              *                               ",
"                                                                              ",
"                                                                              ",
"                                                                              ",
"                                                                              ",
"                                                                              ",
"                                                                              ",
"                                                                              ",
"                                                                              ",
"                                                                              ",
"                                                                              ",
"                                                                              ",
"                                                                              ",
"                                                                              ",
"                                                                              ",
"                                                                              ",
"                                                                              ",
"                                                                              ",
"                                                                              "
};
