/* XPM */
static char *_8ca9bdc4d814a849792b72a79fe78304VHIO7DazM7rdGk4[] = {
/* columns rows colors chars-per-pixel */
"64 64 166 2 ",
"   c black",
".  c #4D41C1",
"X  c #4D41C1",
"o  c #4D41C1",
"O  c #4D41C1",
"+  c #4D41C1",
"@  c #4D41C1",
"#  c #4D41C1",
"$  c #4D41C1",
"%  c #4D41C1",
"&  c #4D41C1",
"*  c #4D41C1",
"=  c #4D41C1",
"-  c #4D41C1",
";  c #4D41C1",
":  c #4D41C1",
">  c #4D41C1",
",  c #4D41C1",
"<  c #4D41C1",
"1  c #4D41C1",
"2  c #4D41C1",
"3  c #4D41C1",
"4  c #4D41C1",
"5  c #4D41C1",
"6  c #4D41C1",
"7  c #4D41C1",
"8  c #4D41C1",
"9  c #4D41C1",
"0  c #4D41C1",
"q  c #4D41C1",
"w  c #4D41C1",
"e  c #4D41C1",
"r  c #4D41C1",
"t  c #4D41C1",
"y  c #4D41C1",
"u  c None",
"i  c #4D41C1",
"p  c #4D41C1",
"a  c #4D41C1",
"s  c #4D41C1",
"d  c #4D41C1",
"f  c #4D41C1",
"g  c #4D41C1",
"h  c #4D41C1",
"j  c #4D41C1",
"k  c #4D41C1",
"l  c #4D41C1",
"z  c #4D41C1",
"x  c #4D41C1",
"c  c #4D41C1",
"v  c #4D41C1",
"b  c #4D41C1",
"n  c #4D41C1",
"m  c #4D41C1",
"M  c #4D41C1",
"N  c #4D41C1",
"B  c #4D41C1",
"V  c #4D41C1",
"C  c #4D41C1",
"Z  c #4D41C1",
"A  c #4D41C1",
"S  c #4D41C1",
"D  c #4D41C1",
"F  c #4D41C1",
"G  c #4D41C1",
"H  c #4D41C1",
"J  c #4D41C1",
"K  c #4D41C1",
"L  c #4D41C1",
"P  c #4D41C1",
"I  c #4D41C1",
"U  c #4D41C1",
"Y  c #4D41C1",
"T  c #4D41C1",
"R  c #4D41C1",
"E  c #4D41C1",
"W  c #4D41C1",
"Q  c #4D41C1",
"!  c #4D41C1",
"~  c #4D41C1",
"^  c #4D41C1",
"/  c #4D41C1",
"(  c #4D41C1",
")  c #4D41C1",
"_  c #4D41C1",
"`  c #4D41C1",
"'  c #4D41C1",
"]  c #4D41C1",
"[  c #4D41C1",
"{  c #4D41C1",
"}  c #4D41C1",
"|  c #4D41C1",
" . c #4D41C1",
".. c #4D41C1",
"X. c #4D41C1",
"o. c #4D41C1",
"O. c #4D41C1",
"+. c #4D41C1",
"@. c #4D41C1",
"#. c #4D41C1",
"$. c #4D41C1",
"%. c #4D41C1",
"&. c #4D41C1",
"*. c #4D41C1",
"=. c #4D41C1",
"-. c #4D41C1",
";. c #4D41C1",
":. c #4D41C1",
">. c #4D41C1",
",. c #4D41C1",
"<. c #4D41C1",
"1. c #4D41C1",
"2. c #4D41C1",
"3. c #4D41C1",
"4. c #4D41C1",
"5. c #4D41C1",
"6. c #4D41C1",
"7. c #4D41C1",
"8. c #4D41C1",
"9. c #4D41C1",
"0. c #4D41C1",
"q. c #4D41C1",
"w. c #4D41C1",
"e. c #4D41C1",
"r. c #4D41C1",
"t. c #4D41C1",
"y. c #4D41C1",
"u. c #4D41C1",
"i. c #4D41C1",
"p. c #4D41C1",
"a. c #4D41C1",
"s. c #4D41C1",
"d. c #4D41C1",
"f. c #4D41C1",
"g. c #4D41C1",
"h. c #4D41C1",
"j. c #4D41C1",
"k. c #4D41C1",
"l. c #4D41C1",
"z. c #4D41C1",
"x. c #4D41C1",
"c. c #4D41C1",
"v. c #4D41C1",
"b. c #4D41C1",
"n. c #4D41C1",
"m. c #4D41C1",
"M. c #4D41C1",
"N. c #4D41C1",
"B. c #4D41C1",
"V. c #4D41C1",
"C. c #4D41C1",
"Z. c #4D41C1",
"A. c #4D41C1",
"S. c #4D41C1",
"D. c #4D41C1",
"F. c #4D41C1",
"G. c #4D41C1",
"H. c #4D41C1",
"J. c #4D41C1",
"K. c #4D41C1",
"L. c #4D41C1",
"P. c #4D41C1",
"I. c #4D41C1",
"U. c #4D41C1",
"Y. c #4D41C1",
"T. c #4D41C1",
/* pixels */
"                                                                                                                                ",
"                                                                                                                                ",
"                                                                                                                                ",
"                                                                                                                                ",
"                                                    . X o O + @ # $ % & * = -                                                   ",
"                                                ; : > , < 1 2 3 4 5 @ 6 7 8 9 0 q                                               ",
"                                            w q e r t y u u u u u u u u i p 7 a s q -                                           ",
"                                          - d f 8 1 u u u u u u u u u u u u u g h j k w                                         ",
"                                          l z x c 3 u u u u u u u u u u u u u 3 g v b n                                         ",
"                                        m z M N 3 u u u u u u u u u u u u u u u 4 6 B f l                                       ",
"                                        V 9 C Z u u u u u u u u u u u u u u u u u 5 A o S                                       ",
"                                        D F u u u u u u u u u u u u u u u u u u u u u G H -                                     ",
"                                        J K u u u u u u u u u u u u u u u u u u u u u L r ;                                     ",
"                                      P I 2 u u u u u u u u u u u u u u u u u u u u u U Y T                                     ",
"                                      R E u u u u u u u u u u u u u u u u u u u u u u u W Q                                     ",
"                                      Q ! u u u u u u u u u u u u u u u u u u u u u u u ~ ^                                     ",
"                                      7 / u u u u u u u u u u u u u u u u u u u u u u u ( p                                     ",
"                                      N ) u u u u u u u u u u u u u u u u u u u u u u u i _                                     ",
"                                      $ 5 u u u u u u u u u u u u u u u u u u u u u u u u u                                     ",
"                                      ) 3 u u u u u u u u u u u u u u u u u u u u u u u u u                                     ",
"                                      1 # u u u u u u u u u u u u u u u u u u u u u u u u u                                     ",
"                                      ` ~ u u u u u u u u u u u u u u u u u u u u u u u i _                                     ",
"                                      ' ] u u u u u u u u u u u u u u u u u u u u u u u 3 y                                     ",
"                                      [ { u u u u u u u u u u u u u u u u u u u u u u u p A                                     ",
"                                      } F y u u u u u u u u u u u u u u u u u u u u u u | x                                     ",
"                                      m  ...u u u u u u u u u u u u u u u u u u u u u u X.>                                     ",
"                                        o.O.( i u u u u u u u u u u u u u u u u u u u +.I @.                                    ",
"                                        V > c 3 u u u u u u u u u u u u u u u u u u u N #..                                     ",
"                                        $.%.&.*.i u u u u u u u u u u u u u u u u u u =.-.                                      ",
"                                          ;.j v 1 _ u u u u u u u u u u u u u u u 4 ~ :.>.                                      ",
"                                          - ,.<.1.@ i u u u u u u u u u u u u u u @ 2.3.4.                                      ",
"                                            w q 5.7 4 i u u u u u u u u u u u u _ N [ 6.-                                       ",
"                                              w P 7.x $ i u u u u u u u u u u u 8.I 9.l                                         ",
"                                                0.q.w.x + U u u u u u u u u u y 1.e.d -                                         ",
"                                                  w l r.I c 3 i u u u u u i 3 t.J y.w                                           ",
"                                                    w d 9.o + 5 u u u u u 5 + u.>..                                             ",
"                                                        d } i.p.2.g @ ) ` a.s.X ,.                                              ",
"                                                          w k 0 d.f.I ..I g.l .                                                 ",
"                                                                  $.V h.B j.-                                                   ",
"                                                                  w y.6 k.l.                                                    ",
"                                                                  m z.Z ^                                                       ",
"                                                                - P x.( c.                                                      ",
"                                                                k & 4 v.6.                                                      ",
"                                                                -.b.n.g.w                                                       ",
"                                                              0.m.( M.,.                                                        ",
"                                                              N.< # H -                                                         ",
"                                                              k A N l                                                           ",
"                                                              0.W N m                                                           ",
"                                                              l t B.j.                                                          ",
"                                                            - V.C L }                                                           ",
"                                                            - y.C ~ P -                                                         ",
"                                                              C.6 1 P l.                                                        ",
"                                                            k E Z Y Z.l.                                                        ",
"                                                            A.) S.D.l .                                                         ",
"                                                          - 8 ( F.%.                                                            ",
"                                                          - O.5 G.9.                                                            ",
"                                                          - H.5 & J.                                                            ",
"                                                            <.p h.K.                                                            ",
"                                                        4.o ..Z L.P.                                                            ",
"                                                        I./ ~ U.T Y.                                                            ",
"                                                        P.[ T.> 3.;                                                             ",
"                                                                                                                                ",
"                                                                                                                                ",
"                                                                                                                                "
};
