/* XPM */
static char *_7816_balloon_youtube_up_monsters_inc__pixar_64x641711798592[] = {
/* columns rows colors chars-per-pixel */
"64 64 256 2 ",
"   c None",
".  c #1B0703",
"X  c #29180C",
"o  c #2D1109",
"O  c #35240E",
"+  c #392815",
"@  c #312618",
"#  c #3A0E3A",
"$  c #372B2B",
"%  c #37372B",
"&  c #372E3C",
"*  c #182F39",
"=  c #483519",
"-  c #533A1C",
";  c #422C14",
":  c #752E18",
">  c #4F1332",
",  c #791524",
"<  c #681A39",
"1  c #6E1431",
"2  c #423B37",
"3  c #53312F",
"4  c #722C31",
"5  c #0E4C13",
"6  c #314C2F",
"7  c #30732A",
"8  c #0D4922",
"9  c #5A4626",
"0  c #514934",
"q  c #654837",
"w  c #715431",
"e  c #746B35",
"r  c #605721",
"t  c #191C53",
"y  c #3B1746",
"u  c #381A5B",
"i  c #311453",
"p  c #14324F",
"a  c #3A3548",
"s  c #362757",
"d  c #343856",
"f  c #2C3051",
"g  c #1C1968",
"h  c #390776",
"j  c #31186C",
"k  c #172A69",
"l  c #133072",
"z  c #2B2969",
"x  c #262A75",
"c  c #372B79",
"v  c #233579",
"b  c #36326A",
"n  c #571A4A",
"m  c #4D174F",
"M  c #6E1548",
"N  c #562646",
"B  c #57285A",
"V  c #4F3250",
"C  c #79244B",
"Z  c #693758",
"A  c #6E2D51",
"S  c #50176F",
"D  c #472866",
"F  c #552769",
"G  c #553767",
"H  c #463976",
"J  c #4F3073",
"K  c #6F3071",
"L  c #6C186B",
"P  c #104C53",
"I  c #31504C",
"U  c #104F74",
"Y  c #304E6F",
"T  c #316B77",
"R  c #2B6B5C",
"E  c #534A45",
"W  c #4D555D",
"Q  c #585A57",
"!  c #4E4A4B",
"~  c #6F4D4E",
"^  c #4D6D56",
"/  c #716951",
"(  c #515073",
")  c #724E70",
"_  c #496879",
"`  c #556C6F",
"'  c #6F706C",
"]  c #B02819",
"[  c #87162A",
"{  c #952836",
"}  c #902F30",
"|  c #B62727",
" . c #AC3333",
".. c #9C1C1C",
"X. c #CF342B",
"o. c #D13720",
"O. c #93502C",
"+. c #A95A36",
"@. c #B54C35",
"#. c #8F753B",
"$. c #AF6C2A",
"%. c #BA761E",
"&. c #D05132",
"*. c #EE5237",
"=. c #D4712D",
"-. c #EC7932",
";. c #D27F1E",
":. c #901B46",
">. c #962743",
",. c #973A48",
"<. c #8C324F",
"1. c #AA2F4C",
"2. c #92306C",
"3. c #B02E6E",
"4. c #9F1C5D",
"5. c #CC3858",
"6. c #D03974",
"7. c #8E4C4F",
"8. c #B0534E",
"9. c #886944",
"0. c #8E714E",
"q. c #B1684F",
"w. c #8F4F71",
"e. c #B84375",
"r. c #AD5369",
"t. c #916E71",
"y. c #AC6F69",
"u. c #C85150",
"i. c #EB5A51",
"p. c #CA714A",
"a. c #EE6B50",
"s. c #D2506E",
"d. c #D0756C",
"f. c #E54F7D",
"g. c #4E8735",
"h. c #738D2B",
"j. c #6EB039",
"k. c #538F50",
"l. c #758B4A",
"z. c #59A851",
"x. c #72AE4B",
"c. c #739570",
"v. c #76B26B",
"b. c #4B8E7C",
"n. c #2D877A",
"m. c #8B9034",
"M. c #AA9438",
"N. c #A2AC37",
"B. c #DA8E32",
"V. c #E99831",
"C. c #F0A63B",
"Z. c #C6BF3A",
"A. c #948653",
"S. c #AD9248",
"D. c #90B84F",
"F. c #B2AC50",
"G. c #908B71",
"H. c #AD9369",
"J. c #8AB36B",
"K. c #AEA46C",
"L. c #CE934D",
"P. c #F08B4C",
"I. c #CEA84C",
"U. c #F0AD4F",
"Y. c #CC9177",
"T. c #D2AF65",
"R. c #EFB467",
"E. c #E9936F",
"W. c #96C352",
"Q. c #A5C65C",
"!. c #D8C950",
"~. c #E4D655",
"^. c #DCC66A",
"/. c #B6C735",
"(. c #143789",
"). c #113286",
"_. c #273888",
"`. c #373A87",
"'. c #2D318C",
"]. c #361683",
"[. c #450887",
"{. c #4F148F",
"}. c #562998",
"|. c #4F3086",
" X c #6A3190",
".X c #6C1F84",
"XX c #164C91",
"oX c #284897",
"OX c #375699",
"+X c #2F4F8E",
"@X c #29679C",
"#X c #307593",
"$X c #175CA6",
"%X c #375AA5",
"&X c #2C52A3",
"*X c #1C6DA6",
"=X c #3867A9",
"-X c #3270AE",
";X c #146689",
":X c #574689",
">X c #5B5787",
",X c #474A95",
"<X c #48599A",
"1X c #4C4E8C",
"2X c #6C4F8C",
"3X c #496D96",
"4X c #716E93",
"5X c #4D57A3",
"6X c #704DA6",
"7X c #5376AF",
"8X c #7076AC",
"9X c #8E3690",
"0X c #914F87",
"qX c #B4548B",
"wX c #8A758E",
"eX c #AB6D8F",
"rX c #AB70A6",
"tX c #D2508C",
"yX c #CF6A94",
"uX c #DD6F9E",
"iX c #D43F80",
"pX c #3488AC",
"aX c #229280",
"sX c #4D8D94",
"dX c #748B91",
"fX c #4F95B2",
"gX c #7292B4",
"hX c #6FAFB6",
"jX c #74AE87",
"kX c #328FC8",
"lX c #538FC8",
"zX c #6F95CB",
"xX c #56A7D6",
"cX c #74ADD3",
"vX c #4EAFE4",
"bX c #70B8E0",
"nX c #6FC3EC",
"mX c #73C2D6",
"MX c #8A8E8C",
"NX c #A9918E",
"BX c #90AB8B",
"VX c #ADB098",
"CX c #8C91A8",
"ZX c #AEAEB3",
"AX c #A4A7B4",
"SX c #D2AF93",
"DX c #C8AAB0",
"FX c #C89197",
"GX c #AEC7A0",
"HX c #D4C8BD",
"JX c #8DB0D3",
"KX c #A3A6CB",
"LX c #91C7CF",
"PX c #88C9E7",
"IX c #ABCED6",
"UX c #D1D0CA",
/* pixels */
"                                                                                                                                ",
"                                                                                                                                ",
"                                                      PXfX4X0XBXQ.0.2X( 6 5     LX                                              ",
"                                                  GXZXJXlXJXCXQ.D.FXzX:X) W MXVXSXT.K.IXbX                                      ",
"                                            yXs.VXP.a.r.wXnXQ.J.c.LXmX6X X].y.a.K <.CXnXvXOX>X6X|.                              ",
"                                      E.    6.s.d.&.| | e.4XsXfX=XdXR.) [.L L.P.r.F ( NXy.7.4XkX*XhX    1X                      ",
"                                    DXuXf.FXCXY.R.8.@.u.3.K Y _ oX) w.K 2Xt.K.W.k.I MXa.X.- d ;X+XOXdXgX&X                      ",
"                                  IXKXtXiXZXbXc.MX8Xq.i.2X].5 e q.@.:.L zXmXv.v.hX7X=Xs.X.: ~ K h G p.VXBX                      ",
"                            uX  ZXcX7XK 0XDXqX2.1X:X_ 1.w.oXP e &. .O.( =XjXW.v.pX=X7X) :.3.5.:.j 1X4XT.U.B.+.                  ",
"                }.          tXf.s.eX:X'.zX6XqXrX) C B d 8 P `.:X8.u.) oX) S.m.k.@XgXzX8XZXPXeX .7.' +XW 7.*.&.                  ",
"              6X{.[.        Y.9.7. X].OXlX&X8XuX3.{ < 8 5 P ` t. .,.G +XT.C.8.2X,X( =X) zXvXfX4X7X0X6 6 Z r./                   ",
"                  h     ^.E.-.M.J.:Xp 7X%X(. X3.5.X.{ ~ 9.E T.R.8. X|.B q.P.2.{.S ,.-X+XY XXY OX&XJ 0 _ ,X,X}.[.                ",
"                        L.P.*.&.K.R 5 h.G.G >.[ 1.>.4 1.4.{ 8.p.) S h u <.d.8.2Xq.L.J./ 7.<.+X(.x A J |.K {.{.[.                ",
"                      u.*.y.X...c.W.h.Z.I.@.1.< K }.D O...[ ! d 2.4.`.oX5XzX4XL.V.D.z.b.:.K oX'.7.s.2.( ~ B j v                 ",
"                      @.i.0XJ G ` U.C.VXdX` D.g.7.L S 3.1.M |._ ) 1.8XlX&X&XOXH.$.7.wXhX' N v |..X2.3.V < [ a U P               ",
"                      r.yXd.e.w.tXr.) 7. .7.k.z.t.5.6.4.<.( ` W.m.&.w.%X5X+XPXbX0X3.3.Q y.<.N n B } | } > B s U U               ",
"                      rXfXr.i.r.e.|.c w.1.C dXD.k.4X3.2.JXvXdXe m.C.q.4XPXlXfXxX) >.6.1.} < H Z ] } ) 3XU z z v *X              ",
"                    KXbX7XqXSXU.w..XK gXpX( Y g.R $X(.S `.-X5XS V +.4 ( lX,XF *X;XA 2.<.r d XX( $.E -X@Xk j m ~ -X              ",
"                    IXnX8Xr.wXy.=.{  .7.OXfXp > D j =XOXS C C M 4 > # ).).oXY p p p & % 6 A |.S V I _.(.s N n Z (               ",
"                    NXdXlXfXOXK.L.} 8. .~ Q m.+.:.) =XXX{.S } ......} N N ( c.N.#.Z u.,.'.J [.[._.pX#X-X_ } N Y _._.            ",
"                    %X+XVXdXc.U.-.+.} 8.Q  .V.=.} ) b y }.[.5X<X: ] ] ] o.O.j.h.+. .*.{ A 1 M m v XXXX(._.F M Z b               ",
"                      gXcXcXK.=.O.&.u.gXfX8X4X>XD V <. .S j _._.8.o.......] $.q .XZ =.&.1 , , # & Y %X'.u S { 8.w               ",
"                      bX3XwXgX:Xz <. X{.|.5X_.).D [ ..{ z (.l s 8.{ r q Y 7.5.K 7XxX9.@.7.> y s i x _.l p a 3 ~ )               ",
"                      ( ) r.2XF B 1.{ M n n s Q >XZ , H ).z u fX1Xq D.!.c.! M y T n.- B.B.F x XXk * l ).k a I R                 ",
"                    y.L B 4.3.w.7.q.&.} S n 4 j.aXU 3 k c &.>.%X;Xk./.V.^ Y # % 8 6 Y w 4 t k b i t z t p a 6 I                 ",
"                      {.2XwX7.H ).N A A Z J G sXT Y kXXX3X,.1 m y V r : d -X+X* p f I w O.& 1 | , u j i f N u                   ",
"                          v.k.y.0.A.0 4 I.L.H XXU b @X&XkXXX} | K |...>.F v l l (.n .., # 1 , 1 N v XXXXD 4 1                   ",
"                            NXNXq.l.9.7.M.%.} < x ).( 3XkX$X,.o.L [.{  .} > > D OXZ | 1 s > y h l U ).(.a >                     ",
"                          wX.X{.|.( K {.+X` CX3X+X_.Z G oX~ , C D ( r r 3 O.$.( -XD > y , > # i g g g k R                       ",
"                          5XS 2.~ 5 a G (.&XvXkX&X'.< K }.7.+.8X%Xb Q w $ +.;.~ D m t t y > > m < q s d +X                      ",
"                              L.h.I B 0XXX( oX$XoX1X..:.{.c dXnX-Xc.A.~ 4 X.] ] , ..4 v ).> i Y O.O.s c 6X{.                    ",
"                               XS h S R b 3XXX(.lXlXA | | V =XkXaXx.z.( N [ ..] ] ..[ y i N Y Y a 6 8   {.[.                    ",
"                              h h 7.O.e c.#X(.`.2X`.D { [ < V 3 ~ m.F.T XXp D 2.L 1 [ > k XXk k V 6 5 7                         ",
"                                  d.a.FXLXpX;XH K z 6 * f p 1 @.$.;.V.NXxX*X].{.[.x i i p p g u n a                             ",
"                                  8XCXzXkXlX=Xc >XG.I./ W +Xu < , w V.LXvX@Xc ].x l p % : - $ a V                               ",
"                                      Z ,.4XXX,X5X' t.) < Y N : 3 - +.4X5XD Y *XP U XX& w } }                                   ",
"                                        @.dXfXjX@Xc b v r 7 6 Y Y d b oX{.h Y ;X7 P F j k J S                                   ",
"                                          hXsX' 0.u.) T k.g.R T ~ Q 3XT b g u 4 O.A C H (.v                                     ",
"                                            I <.7.q.~ ! A.x.Y W @.0./ j.g.z u } ] 1 n D D k                                     ",
"                                              2X7XT Y t.r.Q XX2X*.} ! b.^ 3 a 3 m z x N                                         ",
"                                                dX0.wXzX0X3.8.J ( +XG @X+X< m z j x (                                           ",
"                                                  a.r.}.9XiX5.,.1X$X+Xv v > V b D >X                                            ",
"                                                    yXqX9Xu.8.>X+X7XOX<X( < ~ ~ ( dX                                            ",
"                                                      uXFXE.a.w.5XvX7X-XOX( 3XT Y                                               ",
"                                                        HXE.p.r.2X,X<XOX+XOXfXgX                                                ",
"                                                          SXDXyX2X2X:XH ( ^ dX                                                  ",
"                                                            UXFXDXHXZXNXBXCXVX                                                  ",
"                                                              HXUXUXUXUXZXZX                                                    ",
"                                                                HXUXGXZXAX                                                      ",
"                                                                  ZXAXCXCX                                                      ",
"                                                                  ' 4 ~       E ' '                                             ",
"                                                              Q   o o o     2 G.e E '                                           ",
"                                                    + O X ! ~ + E 2 o o   $ NXK.2 q ~ c.                                        ",
"                                                    E O . + #.~ 9 X o o $ MXI.T.q / #./ G.                                      ",
"                                                  Q Q E 2 2 0 3 3 @ o $ ! % I.~.!.R.I.w ! dX                                    ",
"                                                  Q Q 9.' ' ` Q W W I & X - #.M.M.F.S.M.w                                       ",
"                                                  Q / 9.G./ / G./ / E % 9 r r N.F.A.F.M.                                        ",
"                                                  Q e 0.0.; = / $ @ @ o + = 3 Z.T.$ H.!.                                        ",
"                                                    9.0.0.X ; w o . X . O - - F.~./ K.~.                                        ",
"                                                    9.0.A.0 q 9.O . X . O r e M.~.~.~.!.                                        ",
"                                                    9.0.A.#.w 9.e - 9 - - % 0 e A.#.#.A.                                        ",
"                                                    w w 9 9 - - - - = - - + = + ; ; - q                                         ",
"                                                    9 O O O O + O O O O + O O O                                                 ",
"                                                                                                                                "
};
