/* XPM */
static char *Pngtree___a_luxury_villa_free_of_4640688__1_1711798592[] = {
/* columns rows colors chars-per-pixel */
"64 64 212 2 ",
"   c None",
".  c #100C18",
"X  c #15111E",
"o  c #392717",
"O  c #141323",
"+  c #1E1B2A",
"@  c #191726",
"#  c #191E33",
"$  c #211D2B",
"%  c #1B233A",
"&  c #252637",
"*  c #362E31",
"=  c #463E24",
"-  c #67552C",
";  c #1D2B46",
":  c #1F3150",
">  c #243758",
",  c #2F314B",
"<  c #273F64",
"1  c #2B466C",
"2  c #30566D",
"3  c #294B78",
"4  c #30517D",
"5  c #63585A",
"6  c #4A4D66",
"7  c #6E6568",
"8  c #797A7D",
"9  c #666D76",
"0  c #69625A",
"q  c #8E5D0F",
"w  c #AD6F09",
"e  c #B3750C",
"r  c #9B5028",
"t  c #9C5B38",
"y  c #8B5E27",
"u  c #A25B29",
"i  c #A6612A",
"p  c #AD6D2C",
"a  c #B3792B",
"s  c #B0732B",
"d  c #B37335",
"f  c #9A6B26",
"g  c #C67D3A",
"h  c #955C54",
"j  c #AF6C47",
"k  c #827D7B",
"l  c #8D7F79",
"z  c #907B6B",
"x  c #9B625A",
"c  c #C07649",
"v  c #A7981C",
"b  c #B2AF1E",
"n  c #AFAB1F",
"m  c #B48529",
"M  c #B9872B",
"N  c #A59725",
"B  c #B9B52D",
"V  c #9D951D",
"C  c #FFA300",
"Z  c #FCA509",
"A  c #E5AC03",
"S  c #D6A521",
"D  c #C3BD25",
"F  c #F1AD2E",
"G  c #DE8E14",
"H  c #CEC629",
"J  c #BF8B4C",
"K  c #B9B65D",
"L  c #ACAB57",
"P  c #8A9D7A",
"I  c #94867C",
"U  c #91A37F",
"Y  c #A2AB60",
"T  c #B4B06C",
"R  c #BA937F",
"E  c #D18043",
"W  c #D4894F",
"Q  c #D68D55",
"!  c #D19058",
"~  c #C1BE4F",
"^  c #D09B72",
"/  c #CEAF70",
"(  c #B5C47D",
")  c #DFD449",
"_  c #DED446",
"`  c #C8C65E",
"'  c #C6C45E",
"]  c #D3C14D",
"[  c #E3D348",
"{  c #E5DA53",
"}  c #E8DD56",
"|  c #EDE15A",
" . c #CBC366",
".. c #DBD767",
"X. c #DBD875",
"o. c #C9CD73",
"O. c #F9CB76",
"+. c #E4D072",
"@. c #EDE561",
"#. c #EBE569",
"$. c #E8E07A",
"%. c #2E5587",
"&. c #2E5C94",
"*. c #31598C",
"=. c #33639C",
"-. c #3769A6",
";. c #3A77B8",
":. c #516F81",
">. c #4C6B96",
",. c #736A8D",
"<. c #4875AC",
"1. c #7075AD",
"2. c #415880",
"3. c #3E7FC6",
"4. c #83768C",
"5. c #528CAF",
"6. c #5890B2",
"7. c #5284BE",
"8. c #6397B7",
"9. c #6A9FB6",
"0. c #7791A4",
"q. c #71A2B2",
"w. c #7D9295",
"e. c #3F80CA",
"r. c #4284C8",
"t. c #5887C5",
"y. c #5E9BC9",
"u. c #438AD5",
"i. c #438AD8",
"p. c #4F97D9",
"a. c #6595C8",
"s. c #69A2CD",
"d. c #7CA7C6",
"f. c #7DADD4",
"g. c #70A0D1",
"h. c #70AED9",
"j. c #499AED",
"k. c #4794E5",
"l. c #4A9CF3",
"z. c #4B9FF8",
"x. c #4DA2FD",
"c. c #53A4F7",
"v. c #5DA8EC",
"b. c #64ABE5",
"n. c #928F93",
"m. c #89AB95",
"M. c #93AF92",
"N. c #A7B585",
"B. c #899EAC",
"V. c #94A6B3",
"C. c #8AA8B0",
"Z. c #BAB6B6",
"A. c #ADADB0",
"S. c #BA8C8D",
"D. c #C5AB9B",
"F. c #C5A298",
"G. c #C5AEA1",
"H. c #C9B2A5",
"J. c #D4B7AE",
"K. c #B2C587",
"L. c #98C2B5",
"P. c #A9C1BD",
"I. c #D3D88B",
"U. c #E3DD89",
"Y. c #E6E28C",
"T. c #EEEA9D",
"R. c #DADDA3",
"E. c #D7D8AC",
"W. c #CFCBBA",
"Q. c #DAE1B0",
"!. c #E9E8A4",
"~. c #9091CC",
"^. c #B397DC",
"/. c #A29DCD",
"(. c #83B1D5",
"). c #8BB4D8",
"_. c #99BCDE",
"`. c #99BED8",
"'. c #8BAFCF",
"]. c #BCBCC4",
"[. c #AEBBDF",
"{. c #B9A4CD",
"}. c #97B3E2",
"|. c #B3AEE5",
" X c #C7B0CD",
".X c #C1AAE6",
"XX c #C9B9EA",
"oX c #9CC1DD",
"OX c #BED1C5",
"+X c #BFD4C9",
"@X c #ABC9D7",
"#X c #B7CCD3",
"$X c #AAC6E4",
"%X c #B8C9E8",
"&X c #C7D8C9",
"*X c #D2DDC1",
"=X c #D6D9DC",
"-X c #CACCCE",
";X c #D7E2C6",
":X c #EBEDC8",
">X c #D6CDF6",
",X c #E4D7FF",
"<X c #E6DAFC",
"1X c #E4D0E8",
"2X c #DEE4E9",
"3X c #DFE3E6",
"4X c #D7E6F2",
"5X c #EBEDED",
"6X c white",
"7X c #F1F4F6",
"8X c #E7E7F9",
"9X c #E8CFD8",
/* pixels */
"                                                                                                                                ",
"                                                                                                                                ",
"                                                                                                                                ",
"                                                                                                                                ",
"                                                                                                                                ",
"                                                                                                                                ",
"                                                                % .                                                             ",
"                                                                -.; .                                                           ",
"                                                              < j.=.. .                                                         ",
"                                                              -.x.k.% . .                                                       ",
"                                                            : k.p.v.&.. . . .                                                   ",
"                                                            *.j.M.L.i.# . . . .                                                 ",
"                                                            u.p.o.X.v.%.. . . . .                                               ",
"                                                          1 x.q.#.@.L.i.% . . . . .                                             ",
"                                                          ;.j.( @.| X.v.3 . . . . . .                                           ",
"                                                        > j.y.#.@.@.#.L.u.% . . . O @ @ $ $ $ $ $ $ 1                           ",
"                                                        *.x.q.| @.@.@.I.x.%.. . . $ $ $ $ $ $ $ $ $ %.                          ",
"                                                      % i.p.o.@.@.@.@.@.f.j.. . . X $ $ $ $ $ $ $ $ <.                          ",
"                                                      1 x.6.#.@.@.@.@.@.K.v.%.. . . $ $ $ $ $ $ $ & 3.                          ",
"                                                    @ ;.j.K.@.@.@.@.@.@.#.L.k.. . . @ $ $ $ $ $ $ & u.                          ",
"                                  -.+ $             4 j.y...#.#.#.#.#.#.@.#.c.3 . . X $ $ $ $ $ $ , u.                          ",
"                                4 x.%.$ $ $ . . . . k.x.m.@.#.;XoXoXoX:X| @.L.k.. . . $ $ $ $ $ $ > i.                          ",
"                              3 k.<.l.# $ $ @ . . > x.p.o.#.@.&Xy.y.y.*X@.@.X.x.1 . . X $ $ $ $ $ < r.                          ",
"                              u.3.w C.-.$ $ $ X . 3.x.9.#.#.#.+Xy.y.y.*X@.@.@.L.r.. . X $ $ $ $ $ 4 t.x.                        ",
"                            &.i.- C S l.> + + + % x.p.K.@.@.@.+Xy.y.y.*X@.@.@.X.c.> . . + $ $ $ % >.t.c.                        ",
"                            i.6 G C C N.u.+ $ $ -.x.9...@.@.#.+Xy.y.s.;X@.@.@.@.'.e.. . X $ $ $ + 1.t.j.                        ",
"                          -.;.w F O.O.Z b.3 $ & l.j.( | @.@.#.;Xh.f.f.Q.@.@.@.@.X.x.: . . $ $ $ % g.t.j.                        ",
"                          i.5 C O.'.%XC R i.$ 1 x.p...@.@.@.#.&Xf.f.f.;X@.@.@.@.@.h.=.. . @ & ; > /.t.k.                        ",
"                        > %.q C O.(.$XZ Z >.; r.x.w.@.@.@.@.@.+Xy.y.y.*X@.@.@.@.@.K.c.# . . $ 1./.|.t.i.                        ",
"                      . . . q C U.).$XZ C o ; z.j.m.@.@.@.@.@.&Xs.s.s.Q.@.@.@.@.@.} h.&.. . . ,..X%Xt.r.:                       ",
"                    . . . . q C F O.O.C C o =.x.r.m.@.@.@.@.@.T.Q.Q.Q.T.@.@.@.@.@.} N.j.@ . . , /.[.6 ; O                       ",
"                  . . . . . = w e w w w w * j.l.;.m.@.@.@.@.@.@.@.#.@.@.@.@.@.@.@.| [ b.%.. . . ,.>X, . . .                     ",
"                . . . . . . . . . . . . . %.c.u.;.M.@.@.@.@.@.@.@.@.@.@.@.@.@.@.@.} [ K.k.O . . & ^.6 . . .                     ",
"              . . . . . . . . . . . . X . > =.;.4 Y @.@.@.@.@.@.@.@.@.@.@.@.@.@.| | [ ) M.*.: % # ,.1.& X X .                   ",
"              ;.-.t.-.&.&.&.&.&.&.;.<.&.&.&.1 & - @.| @.@.@.@.@.@.@.@.@.@.@.@.@.@.@.} [ [ I ,.,.1.~.t.0.,.* O                   ",
"                  7X9 O O O X X . w.n.O O X = L @.@.| | | | | | @.| | | | | | | | | | } [ ] 4.4.4.^.|.g.d.V.,.*                 ",
"                  6X7 . . . . . . k n.. . . v S S S S S S S S S S S S S S S S S S S S S S f t x h x S.{.|.d.d.V.V.              ",
"                  6X9 . . . . . . 4.n.. . . o y m m a a m m m m m m m m v m M M M m m m M M d j c j c c F.XX}.g.`.              ",
"                  6XA.7 7 7 7 7 7 Z.H.7 7 7 7 7 z I N v n n b b b b b b b D H H H H H H ) { H.^.^..XXXJ.J.1X,X                  ",
"                  6X7X2X5XA.J.Z.Z.5X=XZ.H.Z.Z.G.A.Z.T P.Y ~ =X@X@X@X@XQ.B D Y.@X#XOXOXU.) {  XXXXXXX,X,X,X,X,X                  ",
"                  6X7X2X=XF.Z.B.C.=X3XA.q.B.B.A.n.k U 8.Y ~ oX6.y.y.y.+XB D Y.y.y.y.y.R.[ { ].5.6.[._.,X,X,X,X                  ",
"                  6X      r k 2 2 V.=XI 2 2 2 8 5 . P 9.Y ~ `.y.y.y.y.+XB D Y.y.y.y.y.R._ { ].5.6.[.).%X>X,X8X                  ",
"                  6X      r k 2 2 C.=X4.2 2 2 k 5 . P 8.Y ~ oXy.y.y.y.OXB D Y.y.y.y.y.R._ { OX5.6.[.).).$X(._.                  ",
"                  6X      r k 2 2 V.=Xk 2 2 2 8 5 . U 8.Y ~ `.y.y.y.y.OXB D Y.y.y.y.y.R._ { ].6.6.[.).).$X(._.                  ",
"                  6X      r 8 2 2 C.=X8 2 2 2 ,.5 . P 8.Y ~ oXs.s.s.s.+XB H Y.s.s.s.s.R.) |  Xq.d.%X$X_.%Xf._.                  ",
"                  6X      y I 9 :.A.=Xn.9 :.:.P 5 . M.'.L ~ @Xf.(.f.f.*XB B U.f.f.f.f.!._ { -X5.6.[.).).$X_.$X                  ",
"                  6X      r z 1 2 C.=Xk 2 2 2 8 5 . P 6.Y ~ oXy.y.y.y.OXB D U.y.y.y.y.R._ { OXq.d.%X$X_.>X`.$X                  ",
"                  6X7X    S.A.0.0.#X=X8 2 2 2 8 0 . P 9.Y ~ oXy.y.y.y.OXB D U.y.y.y.y.R._ { {..X.XXX>X,X<X<X<X                  ",
"                  6X7X3X3XH.-X].OX5X-Xl 9 9 9 I 5 & Q.4XE.R.5X4X4X4X2X5XI.U.:X4X4X2X4X:XT.T. X^.^..X>X,X<X<X<X                  ",
"                  6X7X3X3XD.F.A.G.5XJ.t t t t t 5 @ K K K '  .` ` ' ' ` ` ..........+...$.Y. X^.^..XXX,X<X<X,X                  ",
"                  6X7X5X9XH.D.D.D.5XJ.u r r i t 0 * V v v b b b b b b b b D H H H H H H [ |  X X|.XX,X<X1X9X9X                  ",
"                  W.H.D.D.D.D.D.D.J.^ p s p p p s p K K K  . . . . . . . .+.X.+.X.+.+.+.U.O.F.^ F.^ ! Q Q Q E                   ",
"                    r r r r r r r r i i i i i i i i j j j j W J J J J ! W ! ! Q Q Q Q Q F A E E g g g g                         ",
"                                                    r u u a a a a a a a a g E E c E E E                                         ",
"                                                                                                                                ",
"                                                                                                                                ",
"                                                                                                                                ",
"                                                                                                                                ",
"                                                                                                                                ",
"                                                                                                                                ",
"                                                                                                                                ",
"                                                                                                                                ",
"                                                                                                                                ",
"                                                                                                                                "
};
