/* XPM */
static char *ground_2__2_1711795461[] = {
/* columns rows colors chars-per-pixel */
"79 64 44 1 ",
"  c #5F96BB",
". c #5D98BF",
"X c #6097BB",
"o c #6398BC",
"O c #5C97C3",
"+ c #5799C3",
"@ c #5B98C4",
"# c #6297C4",
"$ c #619AC7",
"% c #6C9EC6",
"& c #639DC9",
"* c #699FCC",
"= c #6BA0C7",
"- c #67A1CD",
"; c #6AA1CE",
": c #72A5CE",
"> c #7BA7CD",
", c #7AA9CE",
"< c #6CA3D0",
"1 c #74A6D1",
"2 c #76A8D3",
"3 c #7CABD3",
"4 c #7DAFD9",
"5 c #7CB0D5",
"6 c #7FB0D8",
"7 c #81AED4",
"8 c #87B0D5",
"9 c #88B1D7",
"0 c #81B3D9",
"q c #8EB8DD",
"w c #9BB8D7",
"e c #92B7DA",
"r c #93BADC",
"t c #99BBDB",
"y c #9ABFE0",
"u c #A6C3DE",
"i c #AAC4DE",
"p c #9CC1E2",
"a c #A4C4E2",
"s c #ABC5E2",
"d c #A7C8E6",
"f c #AACAE6",
"g c #ACCBE9",
"h c #B1CBE2",
/* pixels */
"23373>337333737373333>3312712332>7333731OOOO+O@.@@=3431*@$&&&&&&&&&-&*&=&;::=;;",
"233333333333>3733333733737>74333>432324#OO+O@O@@@@O&###@$$@*$&&&&&&;33:=7erwq7%",
"23333733333333333373372733722333473342&OO+@O@@+OO@OO$@@$$$$$&$&&$&&;:7rrwwwwwte",
"2333333333377333333332723373*#122233*#OO+@@O@@++@O&@@$@$$$$&$&@&&&*&-%,rteeetwt",
"3333333333223272373373333334##OOO#O#OOOO+O@+O+@@@@O$O$@$$OO&&&&$&&&&&*&4==&$:ew",
"023373323773277733273733727*+OO++OO+OOO+@@+O+@@@@@@@@@#$$&&O@&$&$&&&&&&*&---==e",
",3373333337772737333333323<OOO+++O+O+O+OOO@@OO@+@.OO$@#$$OO&&$$&&&&&&&@;--&--%3",
"333,333313332332333333337*#O++OO+OO+O+O++O@@@@@@O&@&@$O@O$$&O$$$&&&&&&&*&--&--0",
"334323337333273333333333;OO++OOOOO+OOO@@+-$-&&&@&----O$@$$&&O@&&&&O&&&&&&-&---;",
"*%*14333333772333333,534#O+OOO+++O+O+O+OO@@@&&-*------&-$O@&&#O&&$&&&&&*&&--&-;",
"@&&##<23373333113333,36=#++OO+@O+@OO+O+.O+O@$-&&&-------;@@@O&&O$&$&&&&&&&&&-&-",
"@&&#&&***131<#O#&16573;O+OOO+O+O+.@@O++@OO&&&-&*&-------;**&#@#&&$&&&O&&&--&-&&",
"$$$$$&&&&OOO#OOO@.@==@.OOOO+O+@@+O@@@@$&&&&&&&-&-&-----;-<-*&$$$&$&&@&&&&*&&&-&",
"@$@$$#@&&O+OOO+O@@@@++@@O+OO@+O+O+@@@-@&$&&&&&&---------<-;;&#$$O&O&&&&&&&&&-&-",
"@$@$O&&O&OO+O+O+O@O++O+O@O@+@O+OOO@@@@@$#&&&&O@#&-&&&----;;;*$$O&$&&&&$&&&&&&--",
"@@@OO#O&O&OOOO+OO+OO+O@O++@O+O@@+O@@@@@@+O@@OOO@@@OO+$&;-;;;;;&$O&$&@$&&&&&&-=-",
"@@@@@@@@@-.++OOOO+O+O+OO@@+@@++O+O@@OOO++OOOO@@@@@+OO@+@---<------@&$&&$*$@@@@@",
"@@O@O@@@$@++O+++@&@&$OOO@@@@@@@OO++@++OOOO++++@+@@+@+@OO$$O$&--<;-*@$$$O@@@@O.@",
"@@++@@@@@@O+OO+O&@&@&#&&&&&&@OO+O@O@O++OO+O+O+@@+@O@@OO@+@@O@$&-<&&@@O@@O+@@O$3",
"@@@@@@@@@O@O+OO#@&#&&&$&&&&&&OO@@@O+OO@@+O+O+O@+O@O++O+++@O$$@@&@@+O@@@@@@@O,ph",
"OO+O@O+O+O++@@@@O$$$O@&&&&&&*&$&@++O++@@OOO+@@@@@+@+O@+@@&&---$$&$+.+O@@+O$rhhh",
"++OO+OO+++OO@@@@O$O$&O$@$&$$$&&&-&OO&&;&&@OO@@-&$$@@OO$;---<-;;-<;*%X  ooopghhi",
"OOO+O++O@@@@@+@@OO@@@$$O$O$$&$&&&&&-&&*-;&&;------&&--<;<-<**<;<3ryadfdffssisss",
"O+O+O+O+@@@@@@OOO+O@@@@#$$O&@$O&O&&$-&&&&--------------<*<***4qyasaiissisiiiiui",
"@@@@@O@@++O@+O++OO+O@@@@@$@$$$$&&&$$&&&&*&;&*---;;;;--;;<---<662128qasusiuusisu",
"@@@@OO+OO@O+++OO+@O$&@@@@@@@$$@$@#$$&&&&&&&-&&*--;;;;;----<-*-----;==qasaaattrt",
"-@@+O+OO@O@+@@@+@@;-<--@@@@O@@$@&$$$@#&&&#&;;-&;<2112;;=--*<--<--<**==3p9>::<1<",
";O++O+++++@O@@@@;;;;--<&@@@O@@@O@@$$&&$#;11111221112221;<<*-<-<-**<<--;:;*;;*;-",
"-&+++@OOO@+OOO--;;;=-<-<<--&@@@OO$O$@&$:1111222:212:2:21121----<;-*<;;<-;*%;*--",
";-&&&&+OO+O+OO---;;;;----<-<&@@@+@@@O#=1,:11,2:21:221:2::111-----<<-;;;;;:<;**-",
"--;;--@+O@@+O&=;<<---;;<<<---@O@O++O@;11:21211:::1:221:22121;-<;*;--;;<111121*<",
";-;<;;-+@.@++&;---<*;;;;*----$O@+O+O111112111:122:2::211:12222111;--*<1<11<11<<",
"---<--*$OO+OO$;;-<<<***<--<-<&O+OOO&22:2111111:112111>:21211111111*;****<<<<<-<",
"<<<---;-&+O+OO-;--**<<**<---<&$+OO+@111:11213212111111211121111121<;**-----<<<<",
"---<<-;*-&O@$&-*<-****<*--------$O@-;;111111:11>11>111:111>:1111<1<<<--*-------",
"-<---<;;<-$$--;;--<<***-;--<-<--*&;;;;;;11111:1112111111111111:11<1<<<------*--",
"-<--<-*$&&-<---;<-<<-<<*;;-;---<;;;;;;;;11121211111112:1111:::1<;*<<;;;-<-*<---",
"<--&$O++@+@&<-;<-&---<-<;<--<---;;;;;;=:1121211111111:1111111*<<;<<------------",
"-<&+O++O++@@&-<&$OO+&<;<-<;--<<-*;;;;--11121122<111:11:1<*<<<<*<;-;---;---*-&&&",
"--++O+OO+@@++--O+O+O$+@&;;-;-<-*<*;;;-;-112121221::11<*<*1*<****----;&&--@@-@&&",
"-&OO+OO++@O+@@@@+OO+O+@O&**-<--<*<;;*;;*<222<2<<<<<<<;<<*<<*-<--;-&-&&&&$&$&&O@",
"-&OOO+@OOO+O@@+@+O+O@O@++<--<-<<*<*<<**;<<<<<<<;*;;;;;<-**------;&&&&&&&&$$$O&@",
"-&++O@+OO+O+@O@@OOOOO@O++&---<-**<<**<***;;*<-**<*;*;<;-*<----&&&$&$&&$$$OO$#$O",
"&&+O+O+@O+OO@++O+OOO@+O@+O$&<-<-<***<<**<;;;<**<*<*<;;*-*-&&&&-@&&$$&$$O$O@@@@O",
"O+O+@@O+OO++O+@O@O@O++O@++O$<---*<<*<***;;**<*<*<**<<***&&&&@*$&$$$$O@@@@O@@+O+",
"+O++O+O@+OOOOO++++@OO@O+$OOO$-<*<****<<*<**<*<*<**<**;<;;----@&@O$$@@@@O@@@@@@O",
"OO@O+O+@+O++@@O@O@O+++@++++O+*-<******<*****<<<*****;;;;<<;;;*&OO$@@@@O+O++O@@+",
"O++O@@+OO+O@@@+@O++O+@@OOO+O$&<-<<<<<**<<*<*******<<*;;;;-<*;;;@O@$&&@+O+O+@+@+",
"O+OO+O+OO+O+O@+O+&++OOO+O+O$O&<&**<&<;<;;;-<<-<<****<*<**-;*-;<-O&&&&&OOOO@@&&-",
"+OO++@O+OOO++O@@O+OOO++O+$$+O-<<<<*<;;-;;&<<<-<<<<*<***<*---;;&$&&&&&&&&&O@&&&-",
"@OO+@+@@+OOO+@+O+O+OO+O+O+++O-<--<&<&<-&<&---<--<**<*<*-&&$&--&&&&&&&&*&&-**&*&",
"@O+O@@+@O++OOO+@O+O++O+O+OOO$&-<<&*<&&$O&&<-----;**<<<*&&&&$-&&&&&&&&&&&&&&&&&&",
"@@O@+O@+@OO+@@+OO+OO+O+$O$OOOO$----&O&O&&&&<<-<--**<<**&&$&$$&&$&&&&&&&*&-&&O*&",
"++O++@@@++@@+O@@O++OOO+++$OO&O+O$<-&&OOOOO&&<---<*<<*<*&$&&$&$&&&&&&&&&O@@&O&@&",
"OO@+OO@@O@O@+@+OOO+OO+OOOO&&OO@$OO-$O&OO$O&<-<<&-<***<*&&&&&$$&&&&&&&OO#@&&&#@&",
"+O@@@+@@O++@OO+@+OO+OO+O+OO&O$O@$O&OOO&O$$$&&--<<--<;;;;&$&$&&&&&&&&&&O&&@O&&$&",
"+@@O@OOO@++@OO+OO$+OO+O++OO&&&&O+&O$$$O$$OO$$O*<-------<-&&&&&&&&&&&OOOO@&$O&&$",
"+.@O@O++@OO@+O+O+O++OOO+O+&&&&&&OO$OOOOO$O&$&O<<<<<---<&&&&&$$&&&O&&OO&O$@$&&#&",
"+OO+@@++OO++OOO++OO++O$O+O&OO&&-OO&$$O&OO$O$O&&O+&&&-&$$$&&&&$&OOOOO&&O#$$@&$$$",
"+O+O++.@+@@O++OOOO+OO+++OOOO&&&-&OOOOO&O$$O$&O$$&&&&&&$&$+++++O+@@@@OOO&$@#&@&&",
"OO@@@++@O++OOO++O+O++OO+++O&&&&&&$O$$$O$$$$$&O&O++&$$$$$@OOOOO+O@+@@OO$$O$$$$$&",
"+O@@@@OO+OOOO++O++$+OO+OOO+OOOO-**$$OO$OO$$OO&O&&&&$&$$$OOO++OO+@@@OO$O$#@$$$&$",
"+O@+OO+@OOO++OO++OOOO+++O+OOOOO&***O$O$$O$&O$$O&&OO&&$&@@@+OOOOO@@@O$OO$@$$$$&&",
"O+O++O+@@@O+OO+OO+$O&O&O&&O&O&&&*<*&$$$$$$$&$&&O&&$&&&&$O+OO++$O&O&&$&$$$&$$$&&"
};
