/* XPM */
static char *c5ec7917706e4a8bad12cd1efe057a8f2yzHGRFMRZRHPnD0[] = {
/* columns rows colors chars-per-pixel */
"65 64 164 2 ",
"   c #76C5DE",
".  c #7AC5DF",
"X  c #76C5E1",
"o  c #7BC6E1",
"O  c #7EC8E3",
"+  c #8CC6D9",
"@  c #8DC9DE",
"#  c #92C7DB",
"$  c #98C7DB",
"%  c #93CADE",
"&  c #9CCBDE",
"*  c #A4CDDE",
"=  c #AACFDF",
"-  c #A6D0DF",
";  c #A9D0DF",
":  c #84C7E2",
">  c #8AC6E3",
",  c #84C9E3",
"<  c #8CCAE4",
"1  c #8ECEE9",
"2  c #93C7E5",
"3  c #95CCE4",
"4  c #9BCDE4",
"5  c #93CEE9",
"6  c #9ACEE9",
"7  c #8FD0EA",
"8  c #95D0E5",
"9  c #9BD1E6",
"0  c #95D1EA",
"q  c #9CD3EA",
"w  c #9ED8EC",
"e  c #A2CEE4",
"r  c #AACFE1",
"t  c #A0CFE8",
"y  c #A3D2E6",
"u  c #ACD3E4",
"i  c #AAD8E7",
"p  c #A4D4EB",
"a  c #AAD6EC",
"s  c #A4D8ED",
"d  c #ACD9ED",
"f  c #B3D5E6",
"g  c #B9D6E5",
"h  c #B3D8E5",
"j  c #BCDAE6",
"k  c #B2D7E9",
"l  c #B9D7E9",
"z  c #B2DAEB",
"x  c #B1D9E9",
"c  c #B4D8E8",
"v  c #B4D8E9",
"b  c #B4D9E9",
"n  c #B5D9E9",
"m  c #B5D8E9",
"M  c #B5DAE9",
"N  c #B5D9EA",
"B  c #B5D9EB",
"V  c #B6D9EA",
"C  c #B5DAEA",
"Z  c #B6DAEA",
"A  c #B7DAEA",
"S  c #B7DBEA",
"D  c #B6DAEB",
"F  c #B6DBEB",
"G  c #B7DBEB",
"H  c #B5DCEB",
"J  c #B3DBEC",
"K  c #B2DBEC",
"L  c #B0DBEE",
"P  c #B1DBEF",
"I  c #B0DAEC",
"U  c #B4D9EC",
"Y  c #B4DBEC",
"T  c #B5DBEC",
"R  c #B7DBEC",
"E  c #B7DAED",
"W  c #B6DBED",
"Q  c #B7DBEE",
"!  c #B2DCED",
"~  c #B3DCED",
"^  c #B3DDED",
"/  c #B1DCED",
"(  c #B4DCEC",
")  c #B4DDEC",
"_  c #B5DCED",
"`  c #B6DDED",
"'  c #B7DFEC",
"]  c #B7DCEE",
"[  c #B6DDEE",
"{  c #B7DCEF",
"}  c #B5DEEE",
"|  c #B3DAEC",
" . c #B9D8E9",
".. c #BADBE9",
"X. c #B9D9EA",
"o. c #B8DBEA",
"O. c #B9DBEA",
"+. c #B8DAEB",
"@. c #B9DBEB",
"#. c #BADBEA",
"$. c #BBDBEB",
"%. c #BCDAEA",
"&. c #BCDBEB",
"*. c #BEDAEB",
"=. c #B9DCE8",
"-. c #BFDCE8",
";. c #BFDEE9",
":. c #BDDCEA",
">. c #BEDEEB",
",. c #BFDEEB",
"<. c #B8DBEC",
"1. c #BADBEC",
"2. c #BCDBEC",
"3. c #B8DCEC",
"4. c #B9DCEC",
"5. c #B8DCED",
"6. c #B8DDED",
"7. c #B9DDED",
"8. c #B9DEED",
"9. c #BADEED",
"0. c #BBDFED",
"q. c #B9DDEE",
"w. c #BBDEEE",
"e. c #BEDEEC",
"r. c #BFDFED",
"t. c #BFDCEE",
"y. c #BDDFEF",
"u. c #BFDEEE",
"i. c #BBDCEC",
"p. c #ACD7F0",
"a. c #A5DAF0",
"s. c #ACDAF0",
"d. c #B3DCF0",
"f. c #B9DCF0",
"g. c #B9DDF0",
"h. c #BADEF0",
"j. c #BBE0EE",
"k. c #BCE1F1",
"l. c #C0DBE7",
"z. c #C0DBE7",
"x. c #C1DDE9",
"c. c #C4DEE9",
"v. c #C4DEEA",
"b. c #C5DEEA",
"n. c #C1DCEC",
"m. c #C3DEED",
"M. c #C3DFED",
"N. c #C1DFEE",
"B. c #C0DEEF",
"V. c #C3DFEE",
"C. c #C2DFEF",
"Z. c #C1DEEC",
"A. c #C0DFF0",
"S. c #C0DEF0",
"D. c #C1E1EC",
"F. c #C4E1EC",
"G. c #C5E2ED",
"H. c #C6E1EE",
"J. c #C5E3EE",
"K. c #C7E3EF",
"L. c #C9E1EE",
"P. c #CBE1EE",
"I. c #CBE3EF",
"U. c #C0E0F0",
/* pixels */
"w s s d d } } j.D.H.L.L.L.L.L.H.H.H.H.H.H.H.D.t.w.j.n.A.U.n.n.n.n.n.t.w.w.D D D 1.D u i / } w.w.w.w.w.w.w.T } w.} / i v P d d d / ",
"p p p p a i v D =.x.x.c.c.c.c.x.:.:.:.t.t.:.t.F D D D D 1. . .*.1.1. .D k k D D k u y y u v D w.w.w.w.T D T F F i a u a i i i ( v ",
"p p p p p i i v h g j j j l.x.j g  . . .=.D D D v v v v D D D D D D v k u k k k u y y y y u D D D } w.T T F } v i u y u a i v v D ",
"8 9 9 y y u u k h h g g j j j g g  . .D D v v v v x x v v v v v i u u u u k k u y y 4 4 y y k D D } } } } P v i s p p p a i v v T ",
"3 3 4 9 y y u u k k k h g j j j  . .D D D v v v v v v v v v v i i i y y u u u y y 4 4 4 4 y u i v P / / P P d s p p p p a a i ( w.",
"3 3 3 4 4 y y u u u u u c  .*.n.t.w.D v v v i v v v v v v F v v v v i u u y y 4 4 4 4 4 4 9 9 p u a i d d p w w w p p s s a d d w.",
"3 3 3 3 8 4 4 y y y y y u  .t.n.t.w.D D v v i i i i v v } } D } ( / / i y p 9 4 4 4 4 4 4 4 4 9 y p p p a p w w w p s s s d d d T ",
"4 4 3 3 3 4 4 y y p w y u c 1.t.w.D D v v v v v v v D } w.w.w.} } } } i u p y 9 4 4 4 4 4 3 8 9 9 9 9 y p 9 w w w p s s d d d d P ",
"4 4 4 4 & y u u u u y y u u u v v i u u i i i v v v D w.w.=.=.w.w.w.w.w.T d p 9 9 9 9 9 3 3 3 5 3 3 9 9 y 9 9 w w p p a d d d s u ",
"& & & & - u u u u u u u f u u u u u u u u u u u D  .=. . .=.:.*.t.w.w.} } P d s 9 9 9 8 3 3 3 8 3 3 4 4 9 9 3 8 9 9 p p p p p w 9 ",
"% % % & - = ; u ; ; r u u u u u u u u u u k k h g z.x.-.g g *.*.*. .D T v d d s p p p 9 9 9 9 8 8 8 3 3 3 3 3 3 3 9 y p w 9 8 1 < ",
"+ + # $ * * r r ; ; = u u u u u u f f f h h h g j z.x.:.D v D  .*. . .v i a d d a d d d a p 9 9 8 0 5 3 3 3 3 2 5 3 9 9 9 3 < , , ",
"+ + + $ & * * * * r u ; ; u u u u f g g g g h h  .x.D.=.v u u D l c D v i a i T T P / d.s.d p 9 9 9 0 6 6 3 < 1 < 3 4 4 4 3 < : : ",
"% + # & & & * * * u u ; ; u ; u u h g j :.*. . . .t.j.j.v y u k k k k v i i v 1.D T P d d s.s.p p p 9 y y 9 0 1 < 3 e 4 4 4 3 < : ",
"3 3 % 4 e * u r r u u u u u u u k  .t.x.n.n.n.A.n.n.t.w.} a u u f k D v a a v D D v d d d d s.s.d d s.d p w 9 5 3 4 4 4 4 4 4 4 3 ",
"3 4 4 4 e r u u u h h h k k u i v w.t.t.t.t.t.t.t.t.w.} } v v D D D D v a y u k v v a p p a d d d P d.d.s.p w 9 9 9 4 4 4 4 & 4 4 ",
"3 3 4 4 4 y y u k  . . .D v v v v w.t.t.t.w.w.w.w.w.} } } T } 1.1. .D i s p u k u k a a p a d P d P g.g.s.p w 9 w 9 4 4 4 4 4 4 4 ",
"3 3 3 4 4 9 y y k D D D D T T } } w.t.t.w.w.w.w.} } } } / P P T T D D d a p u u u u I a a v T T T T w.T a u p p w 9 9 y 9 9 3 3 2 ",
"3 3 3 8 9 9 p u k v P v D T T } w.k.k.k.} T 1.} } P / P d d i P P v P d d a u a u u a a d P T T T 1.h.h./ d p 9 8 8 9 9 4 3 3 3 2 ",
"< < 3 3 9 9 q p a a d P P P P } } h.h.h.} } 1.} P d d d s d d d d P P d d d p p u a a d d d } h.w.} h.h./ w 0 0 3 5 5 5 5 3 4 4 % ",
"> < 3 3 3 9 w p p a d.d u p d d / } } P } T w.} s.s s p p a.a a d P d.d d d p s a a d d d P g.h.g.} } g.d 0 7 7 0 0 5 5 5 4 4 4 3 ",
", > < 3 3 8 9 p p a a a p y p a p u a d P T T P s.q w w p p p p d d.d.s.s.s.d p s s.s.s.P P T } } T P d p 0 w 9 9 0 < 5 5 4 4 4 4 ",
", , > < 3 3 9 y p p p p p p p p p p p p d P T P s.a.s p p p p p a s.d d d s.p p s p s.s.P P P P / P d d d s p w 0 0 5 0 3 3 4 4 4 ",
". : : , < 3 3 9 y y p y y p p y p p a a p d d s.s.s.s.s.p p p a p d d d a p q w q p s.s.P T } P / d d d d s.s.s.s p p w 8 8 4 4 4 ",
". . . : < 2 2 4 4 4 4 y p p p p p a d d a a s.s.s.s.s.s.d s.a a p p p a a p w q q q p.s.P d.P d s.d s p s s.s.s.d d d p 9 3 3 3 3 ",
"  . O : < 2 2 3 4 4 9 y y y y p p p s.s.s.a p p s.s.s.d d a p p p w p p p p 9 q q q p p.d.d.s.d s.d p p p d s.s.d s.d p 9 3 3 3 3 ",
". o O : > 2 2 3 3 4 4 9 9 9 9 p p a a a s.s.a p p p a a a p y 9 9 9 9 y p y 9 q q q p a P s.s.d d p p p s d s.s.s.d p p 9 3 < < 2 ",
". . . , > 2 2 2 3 3 5 3 9 9 9 y y p p p a p.a p p p p p p p 9 q 0 0 0 9 9 9 p w q q p a d a a d s p s s.s.s.s.d d p p y 9 3 < < < ",
". o o : > 2 2 3 6 6 4 9 0 0 9 9 p p p p p p p p p p p p p p p q 0 0 5 5 q 9 w p q q p a d d d s s.d s.s.s.s.s.s.p 9 y 9 6 3 , , < ",
"  . o O > < 2 3 4 4 9 5 5 0 9 9 p p p p p p p p p p p p p y y q 0 0 5 5 9 9 w w 9 q p p a a d d s.s.s.s.s.s.s./ s.d a y 4 5 , , < ",
"  . o O : < < 2 4 4 6 5 5 5 q y p p p p y y y p p p p p p q q 0 0 0 0 9 q 9 w w 9 9 y p p d d d s.d d s.d s.d.d.g.} i u y 3 < , < ",
". o o O : > < 2 3 3 5 5 5 6 6 9 9 y y y y y y p p p p p p 9 q 0 0 0 9 9 q 9 9 p p p y y p d d s.s.s.s.s.s.d.g.h.h.w.1.T y 9 3 > < ",
". o o O , > < 2 5 5 5 6 6 6 q q 6 6 4 t y y p p p a a p p y w 9 0 0 0 q q w q p p y p y p p a s.s.s.s.s.s.d / } } w.t.t.T p < < < ",
"X   o O , < < 2 5 5 5 6 9 9 y p y 9 9 y p p p p a d d p p y 9 w q q q q q q q p p p p p p p a d s.d d d d d d d / T 1.1.1.u 6 < 5 ",
"X X o O , , > 2 2 1 1 9 p y p p p y y p p p p a a a a p p y 9 w w q q 0 q q q p a a p p p p a a d d d d d d d i d T D D D a 9 5 5 ",
"X X o O , , < < 1 1 1 5 y p p s.s.a a a p p s d d p.p p p p y w q q q 0 0 q p a a d a p p p a a d d d s d d d i i v v u u u d d p ",
"X   . O : : : : < < 1 5 6 y p s.d.d s.s.p p p d a a p p p p y p p p q w 0 q p a a d a p u a d u d d d p p p p p p a u p p u d d d ",
"X   o O O , < , < < < < 5 q p a d d d s.s p p s a p p p p p p p s p w w q p d d p a u u a u u u u u u p w w q p p p a p p p a d 9 ",
"o o o : , , < , , , , 1 5 q p u d d d d s p p p a a a a p p a d d d s p s s d d s d v v v v i u s u p w w w p p a a u p p p p a w ",
"O O O , , , , , , , , 1 1 9 p a d d d s s p p p a a a a p p d s.s.d d s s d d d s d v v v v k u p p p w q p p p a a u u d s p p 9 ",
"O O : : : O O : , , , , 1 0 9 u a a p p p p p p p a u d u d d P P d d d d d d a s i v D v k k p w q p p s s d d d a a a a p p w 9 ",
"O O : : : O O : , , , , 1 0 9 a a p p p p p p p p p a a d d d P P P i i d d a a u i v D v k k u p p p p d d s.d d d a a a p w w 9 ",
", : : : : : : : , < < < 5 9 9 p a p p p p p p p p p p p a d d d P v a a u u u u u u c D D v I a p p p p d d d d d u u u p p p 9 0 ",
": : > > > : , , , < < < 3 9 y p p p p p p p p p p p p p a d d d P I u y u u u u u u h D D D P d s w p p p p a s.d a p p p u p 9 0 ",
"< > > > > > , : : < 2 3 9 p y 9 y y y p p a p p p p p p a d d i T T v u y y y u k k c c 1.P s s w w p p p p a d d a u p p p p y 9 ",
"< > < > > > : : : < 3 6 4 t y 9 9 y p p d d u p p p p p d P T T T D v a p y p u u u k k a p p q w s p w w p p d v P d i i u u p y ",
": > < 2 2 > : : < 2 3 3 3 6 6 4 9 y p p d d d p p p p p a T T T P v v p p 9 9 p p y p p p p w w w w w w w a P T 1.1.T T v k v d p ",
": > < 3 2 > : > 2 2 3 3 3 6 6 4 y q q p P P P p.p p p p d P T T P / P p y 9 9 y y 4 4 9 9 q s w w a.s p s d T T T T T T c v T T u ",
", > < 2 > > : > 2 2 3 3 3 6 3 4 p 9 p d d.T P p.p p p s d P T P P P d.s.p y 9 y y y y y w p s s s s s.s d d P T T T T T c k P P a ",
", > < 2 2 2 < < 3 3 3 3 3 3 3 6 p y p s.s.P P d p s s s d d d P d d s.s.s.y y y y p p p p q q w w w s s s.d d u k k v c v u u a u ",
", > < < 2 3 3 3 3 5 3 3 6 3 3 6 9 p p p a s.d p p q p s s.d d d d d s.s.s.p y y p y y p q q w w w w w w p p a u a u u k k u u a p ",
"> < < < 2 3 4 4 6 6 4 4 6 5 5 5 0 9 9 q p p p p p q p a s.s.d s.s.s.s.s.s.p p p y y y p q q q q q w w w p p p p p a u u u u p p p ",
"< 3 3 2 3 3 3 3 4 6 4 4 6 5 5 5 5 5 0 9 q q q q q q p a d s.s.s.d s.s.s.s.a p p p y p q q q q q q w w w p p p y p u u u a u p p p ",
"8 3 3 3 3 3 5 5 4 4 4 4 5 5 1 5 5 5 0 0 0 0 q q w p p d s.s.s.s.d s d s.s.s.p p p p y q w q q q 9 w w w y p p y p a u u p p p w p ",
"8 3 3 3 3 3 < 5 4 4 4 3 5 5 5 5 0 5 0 q 0 0 0 0 9 p a s.p.p.p p p p p a d s.p p p y q 9 9 9 q 0 9 9 9 9 y p p y p a u p p p w w w ",
"3 8 4 4 3 3 1 5 5 4 4 3 5 5 5 5 0 0 q 5 5 7 7 0 9 p p p p q q q q w w p p a p p p 9 9 9 9 9 0 0 0 9 9 9 y y y y p a u u p p w w w ",
"8 3 3 4 3 3 5 5 5 5 3 3 1 5 5 5 6 9 0 0 5 1 0 0 p p p 9 9 9 q q 9 9 w p a p p p 9 9 4 9 9 6 5 5 0 9 9 9 9 y p p p p a a a p w w w ",
"3 4 4 4 4 3 3 < < 5 3 3 1 3 3 3 6 6 0 0 5 5 5 9 y y q 5 5 5 q q 9 9 9 y a a p y 9 8 8 0 0 5 5 1 0 8 9 9 9 9 y p p p a a u p p y 9 ",
"3 4 4 4 4 2 > > < 3 3 3 3 3 3 3 4 4 4 3 3 3 3 9 9 9 6 5 5 5 9 9 9 9 9 y a p p y 9 9 0 0 5 5 5 1 0 8 9 9 9 w p p p p p p p p y p p ",
"3 4 4 3 3 % > > > 2 3 3 3 3 3 3 3 4 4 4 3 3 4 4 4 4 3 5 5 6 4 6 9 9 y y p p p y y 9 9 9 0 0 5 1 0 8 8 9 9 9 y p p p p p p y y p p ",
"3 4 4 4 3 % @ @ @ 3 3 3 3 3 3 3 3 4 4 4 4 4 4 4 4 4 4 5 5 4 4 6 6 y y y y y y y y y 9 9 0 0 7 7 0 0 0 9 9 y y y p y p p y y y p a ",
"3 4 4 4 4 3 % @ % 3 3 3 3 3 3 3 3 4 4 4 4 4 4 4 4 4 4 3 4 9 9 9 y y p p p y y y y y 9 9 9 0 7 0 0 5 5 3 9 y y y y y y y y y y y u ",
"3 4 4 4 e 4 3 % % 3 4 3 3 3 3 3 3 4 4 4 4 4 4 4 3 4 4 4 4 y y y y p p p p y y e y e 4 4 8 5 1 1 1 < < 3 4 y y y y y y 9 y y y y u ",
"9 4 4 4 e 4 3 3 % 3 3 3 % 4 4 4 4 4 e e 4 4 4 3 3 3 4 4 y y y y p y y p p p y t e 4 4 4 8 < < < < < < 3 4 y y e y y 4 4 y y y y u "
};
