/* XPM */
static char *_80d5c8154684c91b03ee5495097c09cx2MbBxxgolbp0HbE[] = {
/* columns rows colors chars-per-pixel */
"64 64 221 2 ",
"   c None",
".  c #030100",
"X  c #0C0302",
"o  c #0E0A08",
"O  c #120602",
"+  c #1A0701",
"@  c #150A05",
"#  c #1A0C05",
"$  c #150D0A",
"%  c #1C0E09",
"&  c #1E1106",
"*  c #1C120B",
"=  c #191507",
"-  c #1C1512",
";  c #161312",
":  c #220E04",
">  c #210F0A",
",  c #241205",
"<  c #23130B",
"1  c #2A160B",
"2  c #2A190E",
"3  c #281804",
"4  c #331A0D",
"5  c #361B09",
"6  c #241611",
"7  c #241A16",
"8  c #2C1A13",
"9  c #231D1C",
"0  c #2B1A15",
"q  c #331E14",
"w  c #391E19",
"e  c #2B2505",
"r  c #352806",
"t  c #3B3607",
"y  c #2C201E",
"u  c #33231B",
"i  c #3B241B",
"p  c #392316",
"a  c #2B2524",
"s  c #272223",
"d  c #392925",
"f  c #3F3534",
"g  c #432515",
"h  c #41261A",
"j  c #4B2B1C",
"k  c #462919",
"l  c #55301A",
"z  c #492D10",
"x  c #442D23",
"c  c #452B23",
"v  c #4C3324",
"b  c #46342A",
"n  c #523425",
"m  c #5B3C2C",
"M  c #563829",
"N  c #473938",
"B  c #573B35",
"V  c #663E2B",
"C  c #633D38",
"Z  c #48430B",
"A  c #555115",
"S  c #615D13",
"D  c #6A6218",
"F  c #746E17",
"G  c #4E433E",
"H  c #52443D",
"J  c #5C473E",
"K  c #55422F",
"L  c #6B4A3C",
"P  c #684639",
"I  c #77493B",
"U  c #775A3F",
"Y  c #634A34",
"T  c #756F2B",
"R  c #353840",
"E  c #3B444C",
"W  c #574A47",
"Q  c #5E5048",
"!  c #624B46",
"~  c #7B4B40",
"^  c #774C48",
"/  c #685449",
"(  c #785448",
")  c #645A59",
"_  c #775B55",
"`  c #6A615E",
"'  c #766359",
"]  c #7D7242",
"[  c #6A5F62",
"{  c #6C6366",
"}  c #736563",
"|  c #7A6C68",
" . c #7B6872",
".. c #797374",
"X. c #88503D",
"o. c #81723D",
"O. c #835343",
"+. c #8B5D4C",
"@. c #885647",
"#. c #955A47",
"$. c #885B55",
"%. c #975C52",
"&. c #A65E52",
"*. c #98624B",
"=. c #8A6658",
"-. c #9A6254",
";. c #97665A",
":. c #947B4F",
">. c #A3634D",
",. c #A46555",
"<. c #A86957",
"1. c #B36B54",
"2. c #B87258",
"3. c #AE6D54",
"4. c #865F60",
"5. c #886766",
"6. c #9B6A64",
"7. c #956866",
"8. c #8B786E",
"9. c #857268",
"0. c #987267",
"q. c #877978",
"w. c #957974",
"e. c #856C77",
"r. c #A26E66",
"t. c #A77468",
"y. c #B77569",
"u. c #A77875",
"i. c #B47B78",
"p. c #C5785A",
"a. c #D07C5D",
"s. c #C9786E",
"d. c #888225",
"f. c #948C2A",
"g. c #988B38",
"h. c #A39933",
"j. c #B2A93C",
"k. c #B4AA3C",
"l. c #C5BC3F",
"z. c #A99F41",
"x. c #B6A847",
"c. c #948377",
"v. c #928375",
"b. c #A98576",
"n. c #BA847A",
"m. c #B78D73",
"M. c #D38665",
"N. c #D18B78",
"B. c #E48C71",
"V. c #D7CA49",
"C. c #CFC55A",
"Z. c #E3D974",
"A. c #7B7985",
"S. c #877784",
"D. c #947B86",
"F. c #A17B81",
"G. c #7E808D",
"H. c #898794",
"J. c #978694",
"K. c #8D909D",
"L. c #948B8D",
"P. c #B88981",
"I. c #AB9989",
"U. c #A68B98",
"Y. c #B3948D",
"T. c #B6A397",
"R. c #979AA6",
"E. c #B19DA9",
"W. c #9CA1AC",
"Q. c #B9B5BC",
"!. c #AFA8AD",
"~. c #C78784",
"^. c #C8968A",
"/. c #D49787",
"(. c #D49C92",
"). c #CC9490",
"_. c #E89A8A",
"`. c #D9A698",
"'. c #D6A08F",
"]. c #E8B09E",
"[. c #E8A491",
"{. c #D9B1A4",
"}. c #C8BBB9",
"|. c #CCAFB5",
" X c #E9B8A9",
".X c #F5B7AA",
"XX c #EDB4AA",
"oX c #D8C6BD",
"OX c #EAC1B6",
"+X c #F4CABC",
"@X c #F6C7B9",
"#X c #BBBEC7",
"$X c #C4BEC2",
"%X c #BFC0C6",
"&X c #CCC6C9",
"*X c #D2CDCE",
"=X c #D8CBCA",
"-X c #D3CFD2",
";X c #DCD4D4",
":X c #D8D7D9",
">X c #C8CAD2",
",X c #E8CAC5",
"<X c #F7CEC3",
"1X c #E3D2CC",
"2X c #F7D5C9",
"3X c #E4DDDC",
"4X c #E7D8D5",
"5X c #F2D9D4",
"6X c #E5E1DF",
"7X c #F7E4DC",
"8X c #E5E2E3",
"9X c #EDE9E7",
"0X c #EBE7E8",
"qX c #F2EAE6",
"wX c #FBECE3",
"eX c #F2EDEB",
"rX c #F8F1ED",
"tX c #F6F3F2",
"yX c #F9F5F2",
"uX c #FBF9F6",
"iX c #FCFBF9",
/* pixels */
"                                                                                                                                ",
"                                                6X  iXtX                                                                        ",
"                                                0XyX0X:X:X0XyXuXuXiXuX                                                          ",
"                                            iXyXeX3X3X9XeXeXeXyXyXuXyXtXtX                                                      ",
"                                          yXuXtX3XqXrXeX8XeXyXyXyXyXyXrXeXeX                                                    ",
"                                        tX9X:X*X;X*X*XeXqXeX9X8X9XeXrXyXyXrXeXeX                                                ",
"                                        eX3X;XQ.1X}.R.Q.*X}.$X*X-X-X9XeXyXyXeXeX                                                ",
"                                        ;X3X&X1XwX5XE.J.K.R.R.R.R.W.#X:X8X9XeX0X8X                                              ",
"                                        qXeX3X7XwX7X<XY.D.S.G.H.K.R.R.W.!.Q.*X8X0X                                              ",
"                                      7X;X6X7XwXrXwX7X5X|.U.S.S.A.A.S.H.H.J.W.%X:X*X                                            ",
"                                    .X+XT.=XwXeXeXrXqX3X5X,X|.U.D.S. . . .e.D.R.Q.                                              ",
"                                  _.B.XX{.| T.}.=X1X=X&X=X1X5X,XE.U.J.S.e.e.D.R.#X                                              ",
"                                  B.M.[.5X' d b N W _ 8.Y.}.,X,XOX}.|.E.U.J.U.Q.#X                                              ",
"                                _.M.M.].<Xu.j #.#.O.B d d d 5.P.).oX=X;X;X&XQ.>X%X                                              ",
"                                [.p.N. X@Xu.L %.$.$.R E 9.x c ~ ( N ) q.E.&X#X>X-X                                              ",
"                                ].2. X@X@Xu.;.n.u.u.0.7.=.B / P 0 0 C ! B b f ) H.                                              ",
"                            t.;. XOX@X+X@Xu.$.n.^.y.y.%.P.,X2X<XP.W } _ O.-.6.} 0 ;                                             ",
"                        0.( B m `.+X X+X+X X7.B B ^ ( P.2X2X@X.X].~.;.7.$.~ @.t.7                                               ",
"                      r.( v i c ;./.^.+X<X+X`.t.( B n (.@X.X[._./.~.;.r.t.7.%.%.<                                               ",
"                    n.=.c c 8 8 2 p Y.+X<X.X(.~.i.,.t.N./.N.s.s.y.y.$.^ 5.7.7.C V                                               ",
"                    ;.P d 8 < < < p {.OX+X+XXX[.y.N.(./.3.1.&.&.,.,.C d 0 y d q                                                 ",
"                  6.M i 0 < % < % 1 `. X@X@X.X`. X<X+X X-.I X.#.#.-.$.$.$.$.$.r.                                                ",
"                m.( x q q 8 % < < % 0.`..X+X<X2X2X5X5X2X).^ B C ^ $.;.O.7.7.r.n.                                                ",
"              ^.=.c 8 < 1 < < % % + h y./././.(.(.(.(.(.^.u.5.5.5.5.4.@.6.6.6.                                                  ",
"              t.M 0 % > < 8 % < < q < 8 @.,.,.<.<.r.6.0.u.w.w.w.w.w.D.F.n.i.r.                                                  ",
"            m.L q % @ @ < < % % + % > X X 6 ( O.@.#.+.+.$.=.=.5.w.w.w.u.).^.u.                                                  ",
"            =.x 2 + @ @ < < % @ % @ < X X . H d * j X.#.@.@.+.$.=.=.5.0.u.i.u.                                                  ",
"          r.P q % O O O # % X O % O % % X . N ; . . . $ 8 k n V I O.+.+.;.;.                                                    ",
"          L L x + O O @ + @ X O @ O % < X . N o . . . . . . . . X 0 !   #.                                                      ",
"        ;.m x c 8 O X X O X . X % % $ < @ X N 9 . . o - ; $ . . . $ ! $                                                         ",
"        ;.L p 8 < % X X X X . X + % % % $ X W f o 9 W W ) W ; . . $ Q X $                                                       ",
"        O.v p 8 % O X X X . . X < * % % % X ` { ) [ { ) ) ) Q W s X $ X X 7                                                     ",
"      ;.m p q < + O O X . . . @ < % % % % X ..q.......{  .{ {  .N X X X X o u                                                   ",
"      +.k 8 < < % O + X . X X < < < * % # ; q.S.q.q.q.| | 9.9...W o X X X X < d                                                 ",
"    *.L i 8 8 > % @ # X . X O < < < < % * - 9.8.8.9.' G H G ! ! a o X X X X X 0 x                                               ",
"    @.n q 8 < % @ O X X . X < % % < < < % @ % 6 7 6 ; a - * a O X X X X X X X + 8 x h                                           ",
"    +.j 8 8 % + O O X . . O % * % * < * @ X X X X X X 9 X + s % o X X X X X X X < 8 p w.  oX  1X                                ",
"    V h q 8 > + O X X . X i q < % % < < % X O @ O O @ a 9 9 d * o X X X X X X X % 1 x =.m.b.' c.T.I.                            ",
"  V k 1 < < > + O X X . X q q i p q 6 < % X @ @ $ $ @ 7 y 9 7 * $ X X X X X . . O * ! / P 0.8.    c.                            ",
"  }.8.x % + + + X X X . X X $ < 8 8 0 < % O % $ * * * % % * * * * X X . . . . . * J ^ t.V *.`.    w.}                           ",
"wX{.^.I.' N 6 O X X X . . O O X X $ @ @ < @ % * * * * * * * * < * X X X . X * x L c V -.@.I n.    w.|                           ",
"B.M.3.;.7.5._ W f 7 . . . O % @ O X X + # @ % * < < < * * < < < % . X X X M n i 8 < w #.6.~ r.    w.                            ",
"  a.1.2.,.-._ ( / b . . X O + O # @ X @ % % % < < < < < * < < & X . X +     c c C I ~ #.<.>.      8.                            ",
"    p.2.3.<.<.-.^   X X X @ < < % % + % @ + & < < , < & < & X . . . X       %.,.>.                8.                            ",
"    B.2.2.2.>.-.O.    @ X O # > < < < % @ O % * < < < , & O X X . . X                             9.                            ",
"        1.<.<.3.      < < % % + < + + + + $ & * < < < , @ @ $ @ X . X                             8.|                           ",
"          y.2.2.      < < < i 6 @ O + + O $ * < < < < & % % & $ O X X                             9.q.                          ",
"        N.p.1.        < < 2 m n p % @ O @ % * < < 1 1 , & & % % $ X X X                             | |                         ",
"          M.      M b i m m Y M v i * $ $ * * < & % # % $ $ $ $ $ $ $                               _ }                         ",
"                v b d u P U ( I m v 0 * * * < , O X @ @ @ @ $ $ $ - *                                 ! q.                      ",
"              K H W u 8 v n v n n x u * & & , + + + O @ @ @ $ $ - < <                               ' ' L.                      ",
"            b H ` ) H L m u 2 8 q u 8 < & *   + + + + @ $ @ $ $ - < % %                             5./ 8.c.                    ",
"        2 8 0 u d d M M q < < < 2 8 < * % &   + O + + % @ $ $ $ * % $ $                             _ ! B /     c.c.v.v.I.      ",
"      4 > < < < , , , : + : : , 1 2 < % %     + + + + % & % $ $ * $ $ $ $                                 =.9.I.I.Y A h.V.Z.C.  ",
"      + g q < > # # + + + + + % , < < % &       + + + + % < & % % % $ O X X         u 9 %               ' / / =.T.o.h.V.l.x.d.f.",
"      X < M m 2 % % + O O O @ @ % < % %         + + O + + & , , + + X X X X X G d 6 % < g             { / Q U T x.V.l.k.d.S t Z ",
"        + < n V m j h 1 @ X @ @ % + % ,         # + + O + $ # # + O X X X X X % @ + p l           A...  :.g.k.V.C.k.F S D t 3   ",
"        r 3 > 2 h j k g p < @ @ + + , 5           + + + @ @ @ + O X X X X X + + 1 k l             ..    z.d.F h.f.D Z r z       ",
"          z 4 4 q p h g 4 1 > + + # 5             : + + @ $ @ X X X X X O + > 1 l                 ] j.x.f.D A D S t e e         ",
"            z 4 p : % < < + O + + 3               3 # % + @ X X O O O O + +                     j.f.T F T Z r t r & 3           ",
"            g g n j 5 > X X O O : 5                 : + : , + O O @ X X +                       f.S A t t t e                   ",
"              4 j l l k 5 5 g 1 1                   5         O . . + ,                         S t e = 3                       ",
"              , 4 g g g g k g q 1                             . . +                               e r 3                         ",
"                  X O + + O O +                                                                                                 "
};
