/* XPM */
static char *c75c444bf4b044bdf839c501bd65bd2e6wVGs35jQqNogKQe[] = {
/* columns rows colors chars-per-pixel */
"64 64 221 2 ",
"   c None",
".  c #030100",
"X  c #0C0302",
"o  c #0E0A08",
"O  c #120602",
"+  c #1A0701",
"@  c #150A05",
"#  c #1A0C05",
"$  c #150D0A",
"%  c #1C0E09",
"&  c #1E1106",
"*  c #1C120B",
"=  c #191507",
"-  c #1C1512",
";  c #161312",
":  c #220E04",
">  c #210F0A",
",  c #241205",
"<  c #23130B",
"1  c #2A160B",
"2  c #2A190E",
"3  c #281804",
"4  c #331A0D",
"5  c #361B09",
"6  c #241611",
"7  c #241A16",
"8  c #2C1A13",
"9  c #231D1C",
"0  c #2B1A15",
"q  c #331E14",
"w  c #391E19",
"e  c #2B2505",
"r  c #352806",
"t  c #3B3607",
"y  c #2C201E",
"u  c #33231B",
"i  c #3B241B",
"p  c #392316",
"a  c #2B2524",
"s  c #272223",
"d  c #392925",
"f  c #3F3534",
"g  c #432515",
"h  c #41261A",
"j  c #4B2B1C",
"k  c #462919",
"l  c #55301A",
"z  c #492D10",
"x  c #442D23",
"c  c #452B23",
"v  c #4C3324",
"b  c #46342A",
"n  c #523425",
"m  c #5B3C2C",
"M  c #563829",
"N  c #473938",
"B  c #573B35",
"V  c #663E2B",
"C  c #633D38",
"Z  c #48430B",
"A  c #555115",
"S  c #615D13",
"D  c #6A6218",
"F  c #746E17",
"G  c #4E433E",
"H  c #52443D",
"J  c #5C473E",
"K  c #55422F",
"L  c #6B4A3C",
"P  c #684639",
"I  c #77493B",
"U  c #775A3F",
"Y  c #634A34",
"T  c #756F2B",
"R  c #353840",
"E  c #3B444C",
"W  c #574A47",
"Q  c #5E5048",
"!  c #624B46",
"~  c #7B4B40",
"^  c #774C48",
"/  c #685449",
"(  c #785448",
")  c #645A59",
"_  c #775B55",
"`  c #6A615E",
"'  c #766359",
"]  c #7D7242",
"[  c #6A5F62",
"{  c #6C6366",
"}  c #736563",
"|  c #7A6C68",
" . c #7B6872",
".. c #797374",
"X. c #88503D",
"o. c #81723D",
"O. c #835343",
"+. c #8B5D4C",
"@. c #885647",
"#. c #955A47",
"$. c #885B55",
"%. c #975C52",
"&. c #A65E52",
"*. c #98624B",
"=. c #8A6658",
"-. c #9A6254",
";. c #97665A",
":. c #947B4F",
">. c #A3634D",
",. c #A46555",
"<. c #A86957",
"1. c #B36B54",
"2. c #B87258",
"3. c #AE6D54",
"4. c #865F60",
"5. c #886766",
"6. c #9B6A64",
"7. c #956866",
"8. c #8B786E",
"9. c #857268",
"0. c #987267",
"q. c #877978",
"w. c #957974",
"e. c #856C77",
"r. c #A26E66",
"t. c #A77468",
"y. c #B77569",
"u. c #A77875",
"i. c #B47B78",
"p. c #C5785A",
"a. c #D07C5D",
"s. c #C9786E",
"d. c #888225",
"f. c #948C2A",
"g. c #988B38",
"h. c #A39933",
"j. c #B2A93C",
"k. c #B4AA3C",
"l. c #C5BC3F",
"z. c #A99F41",
"x. c #B6A847",
"c. c #948377",
"v. c #928375",
"b. c #A98576",
"n. c #BA847A",
"m. c #B78D73",
"M. c #D38665",
"N. c #D18B78",
"B. c #E48C71",
"V. c #D7CA49",
"C. c #CFC55A",
"Z. c #E3D974",
"A. c #7B7985",
"S. c #877784",
"D. c #947B86",
"F. c #A17B81",
"G. c #7E808D",
"H. c #898794",
"J. c #978694",
"K. c #8D909D",
"L. c #948B8D",
"P. c #B88981",
"I. c #AB9989",
"U. c #A68B98",
"Y. c #B3948D",
"T. c #B6A397",
"R. c #979AA6",
"E. c #B19DA9",
"W. c #9CA1AC",
"Q. c #B9B5BC",
"!. c #AFA8AD",
"~. c #C78784",
"^. c #C8968A",
"/. c #D49787",
"(. c #D49C92",
"). c #CC9490",
"_. c #E89A8A",
"`. c #D9A698",
"'. c #D6A08F",
"]. c #E8B09E",
"[. c #E8A491",
"{. c #D9B1A4",
"}. c #C8BBB9",
"|. c #CCAFB5",
" X c #E9B8A9",
".X c #F5B7AA",
"XX c #EDB4AA",
"oX c #D8C6BD",
"OX c #EAC1B6",
"+X c #F4CABC",
"@X c #F6C7B9",
"#X c #BBBEC7",
"$X c #C4BEC2",
"%X c #BFC0C6",
"&X c #CCC6C9",
"*X c #D2CDCE",
"=X c #D8CBCA",
"-X c #D3CFD2",
";X c #DCD4D4",
":X c #D8D7D9",
">X c #C8CAD2",
",X c #E8CAC5",
"<X c #F7CEC3",
"1X c #E3D2CC",
"2X c #F7D5C9",
"3X c #E4DDDC",
"4X c #E7D8D5",
"5X c #F2D9D4",
"6X c #E5E1DF",
"7X c #F7E4DC",
"8X c #E5E2E3",
"9X c #EDE9E7",
"0X c #EBE7E8",
"qX c #F2EAE6",
"wX c #FBECE3",
"eX c #F2EDEB",
"rX c #F8F1ED",
"tX c #F6F3F2",
"yX c #F9F5F2",
"uX c #FBF9F6",
"iX c #FCFBF9",
/* pixels */
"                                                                                                                                ",
"                                                                        tXiX  6X                                                ",
"                                                          uXiXuXuXyX8X:X:X0XyX0X                                                ",
"                                                      tXtXyXuXyXyXeXeXeX9X3X3XqXyXiX                                            ",
"                                                    eXeXrXyXyXyXyXyXqX8XeXrXqX3XtXuXyX                                          ",
"                                                eXeXrXyXyXrXeX0X8X0XeXqXqX*X*X;X*X:X9XtX                                        ",
"                                                eXeXyXyXeXqX-X-X*X$X}.*XQ.R.}.1XQ.;X3XeX                                        ",
"                                              8X8XeX9X8X;X#XW.R.R.R.R.K.K.E.5XwX1X&X3X;X                                        ",
"                                              0X8X*XQ.!.W.R.R.K.H.G.S.S.Y.<X7XwX7X4XqXqX                                        ",
"                                            *X:X%XW.J.H.H.S.S.A.S.S.U.|.5X7XwXrXwX7X6X;X7X                                      ",
"                                              Q.R.D.e. . . .S.D.U.|.,X5X4XqXrXeXrXwX=XT.+X.X                                    ",
"                                              #XR.D.e.e.S.J.U.E.,X5X1X=X&X=X1X=X}.T.| {.XXB._.                                  ",
"                                              #XQ.U.J.U.E.|.}. X,X,X}.Y.8._ W N b d ' 5X[.M.B.                                  ",
"                                              %X>XQ.&X;X;X=X}.).P.5.d d d B O.#.X.j b.2X].M.M._.                                ",
"                                              -X>X#X&XE.q.) N ( ~ c c 9.E R $.$.;.L b.+X XN.p.[.                                ",
"                                              H.) f N B ! C 0 0 P / B =.7.6.u.u.n.;.u.@X@X X2.].                                ",
"                                            * y } 6.-.X._ } W P.<X2X,XP.%.y.y.^.n.$.u.@X@X@XOX X;.t.                            ",
"                                              7 t.@.~ $.7.;.~.]..X@X2X2XP.( ^ B B 7. X<X+X X+X`.m B ( 0.                        ",
"                                              < %.%.7.t.r.;.~./._.[..X@X(.n B ( t.`.+X<X+X^./.;.x i v ( r.                      ",
"                                              m C 7.7.5.^ $.y.y.s.s.N./.N.y.,.i.~.(..X<X+XY.i 1 8 8 x x =.n.                    ",
"                                                q d 0 0 d C ,.,.&.&.1.<./.'.N.y.(.XX+X@X@X{.q < < < 8 d P ;.                    ",
"                                                r.$.$.$.$.$.-.#.#.X.I -. X+X<X X`..X@X@X X`.2 % < # < 8 i M 6.                  ",
"                                                n.r.7.7.O.;.$.^ C B ( ^.2X5X2X2X2X<X+X.X`.0.% < < % 8 q q x ^ m.                ",
"                                                  6.6.6.@.4.4.4.5.5.u.^.(.'.(.(.(./././.y.h # % > < < 2 < 8 x =.^.              ",
"                                                  r.i.n.F.D.D.w.w.w.w.u.0.r.<.,.,.,.,.@.2 < q < < % 8 < > % 8 M t.              ",
"                                                  i.^.).u.w.0.0.5.=.=.$.+.+.#.@.O.( 6 X X > % # % % < < @ @ % q L m.            ",
"                                                  u.i.u.0.5.=.=.$.+.@.@.#.X.j * d H . . O < O % @ % < < @ @ # 6 x =.            ",
"                                                    ;.;.+.+.O.I V n h 0 $ . . . ; N . . % % O % O X # # O O O % q P r.          ",
"                                                      #.  ! 0 X . . . . . . . . o N . X < % O @ O X O # @ O O # x L L           ",
"                                                        $ ! $ . . . o ; - o . . 9 N . @ < $ % % X . X O X X O 8 x x m ;.        ",
"                                                      $ X Q $ . . ; W ) Q W 9 o f W . $ % % % # . . X X X X % < 8 i L ;.        ",
"                                                    7 X . $ X s Q Q ) ) ) } [ ) { ` X % # % * < . . . X X O O % 8 p v O.        ",
"                                                  i o X . X X N  .{ {  .{ ......q...X % % % % < O . . . . O O # < q i m ;.      ",
"                                                x < X X . . X W ..9.9.| | q.q.q.S.q.* # % * < < < . . . . # O % < < 8 h +.      ",
"                                              x 0 O X X X X o a ! ! W H G ' 9.8.8.9.- * % < < < < O . . X % @ % < 8 8 i L *.    ",
"                                          h x q # X X X X X X X O a * - a $ 6 7 6 * O % < < < % % < X . . X O @ % < 8 q n @.    ",
"                                1X  oX  w.i 8 > X . X . X X X o % s O X - X X X O X X $ * < * % < % O . . X O O # % 8 q j +.    ",
"                            I.T.c.' b.m.=.d 2 % . . . X X X X O * d 9 9 a @ O O @ O X % < < % % < q i X . X X O O > 2 q h V     ",
"                            c.    8.0.P / ! < O . . . X . . X @ * 7 9 y 7 $ $ $ O @ X % < 6 q i i q q X . X X O @ % < > 1 j V   ",
"                          } w.    `.*.V t.^ J * . . . . . . X * * * * % * * * * % # O % < 8 8 8 < % X . . X X O O O # % x 8.}.  ",
"                          | w.    n.I @.-.V x L x * X . . X . * < * * * * * * * * # @ < @ @ $ X X O O . . . . X O 6 N ' I.^.{.wX",
"                            w.    r.~ 6.#.w < 8 i n m X X X . # < < < * * < < < * # @ # # . X O @ % O . . . 7 f W _ 5.7.;.3.M.B.",
"                            8.      >.<.#.~ I C c c     @ X . . & < < * < < < < < # # % @ X @ # @ # O . . . b / _ _ -.,.2.1.a.  ",
"                            9.                >.,.%.      X . . . . & < & < , < < & @ @ # # % % < < # X . .   ^ -.<.<.3.2.p.    ",
"                            9.                            X . . X X O & , < < < * # O @ % < < < > # O X @     O.-.>.2.2.2.B.    ",
"                          | 8.                            . . X O $ O $ , < < < * # @ @ # # # < # % % < <       3.<.<.1.        ",
"                          q.9.                            . . O $ & & & & < < < < * $ O # # O @ 6 i < < <       2.2.y.          ",
"                        | |                             X . O $ # % & & , 1 1 < < * % O O O % p n m 2 < <         1.p.N.        ",
"                        } _                               $ $ $ $ $ @ @ # # % & < < % $ $ * i v n Y m m i b M       M.          ",
"                      q.!                                 * - $ $ $ O O O O O O < < * * * 0 v m I ( U P u d b v                 ",
"                      L.' '                               < < - $ $ O O O O @ # + < * * * u x n n v n v 8 u Q H K               ",
"                    c.8./ 5.                            # % < - $ $ O $ $ + + + O   * & < 8 u q 8 8 q m L H ) ` H b             ",
"      I.v.v.c.c.    / B Q _                             $ $ % * $ $ O @ # + O O +   & # * < 8 2 < < , q M m d d u 0 0 2         ",
"  C.Z.V.h.A Y I.I.9.=.                                $ $ $ $ * $ $ # & # @ @ @ +     % % < 2 1 , : : + : , , , < < < : 4       ",
"f.d.x.l.V.h.o.T.=./ _ '               % 0 u         X X O $ # # # & , % @ O @ @       & % < < , % # + O + + % % : < q g +       ",
"Z t S d.k.l.V.x.T U Q / `             g < % 6 d G X X X X X O + , , & @ @ O @ +         % # < # @ @ O O O @ % % 2 m M < X       ",
"  e t D S F k.C.V.k.g.:.  ..A.          l p # @ % X . X X X O + # # $ @ O @ @ #         , # # # @ O X O 2 h j m V n < O         ",
"      z r Z D f.h.F d.z.    ..            l k 1 + O X . X X X O @ @ O @ @ @ +           5 , + # @ O , p k j j h 2 : 3 r         ",
"        e e t A D A D f.x.j.]                 l 1 : O O X X X X X O $ @ @ + :             5 # @ @ % 1 4 g h w q 4 5 z           ",
"          3 & r t r Z T F T f.j.                    + + O O O O X X @ + # # 3               3 + O O # < < % : p 4 z             ",
"                  r t t t A S f.                      O . X @ O O + , : + :                 5 : O X X X : 5 j n g g             ",
"                      3 = e t S                         , + . . O         5                   1 1 g 5 5 k l l j 4               ",
"                        3 r e                               O . .                             1 q g j g g g g 4 ,               ",
"                                                                                                O O O + @ O X                   "
};
