/* XPM */
static char *_1c40c04bf1f4b80ee82df1a09b24b70D8elsfq1vZW8RizS[] = {
/* columns rows colors chars-per-pixel */
"64 42 181 2 ",
"   c None",
".  c #90B7D7",
"X  c #99B4D5",
"o  c #A4BEDB",
"O  c #ADBDE1",
"+  c #B7BEE8",
"@  c #A7C1DA",
"#  c #ABC2DC",
"$  c #B8CDE0",
"%  c #BECDE8",
"&  c #BBD5EA",
"*  c #C8CFE6",
"=  c #C4CDEA",
"-  c #C9CFEA",
";  c #C3D4E6",
":  c #C8D1E7",
">  c #C6D2EB",
",  c #CBD4EC",
"<  c #CCDBEB",
"1  c #D5D5EE",
"2  c #D2DCEE",
"3  c #CECCF3",
"4  c #D3CCF5",
"5  c #C6D6F1",
"6  c #CCD5F2",
"7  c #CCDCF2",
"8  c #D3D5F3",
"9  c #DBD4F5",
"0  c #D3DAF3",
"q  c #DADDF4",
"w  c #DFDEFB",
"e  c #E4D6FC",
"r  c #E3DCFB",
"t  c #D3E0ED",
"y  c #C5E1F5",
"u  c #CEE3F3",
"i  c #CDE3FC",
"p  c #CCECFD",
"a  c #D4E3F4",
"s  c #DBE4F3",
"d  c #D7E8F6",
"f  c #DFEAF3",
"g  c #D3E3FD",
"h  c #DBE5FC",
"j  c #D4EDFD",
"k  c #DBEBFD",
"l  c #CEF3FF",
"z  c #D7F2F7",
"x  c #D4F2FE",
"c  c #DCF3FE",
"v  c #DDF9FF",
"b  c #E2E4F6",
"n  c #E3ECF4",
"m  c #E8EFF6",
"M  c #E4E4FD",
"N  c #ECE5FE",
"B  c #E3EBFD",
"V  c #ECECFD",
"C  c #F0E6FF",
"Z  c #F1EDFD",
"A  c #E1F1F7",
"S  c #EBF2F7",
"D  c #E4F4FE",
"F  c #ECF4FC",
"G  c #E5FAFF",
"H  c #EEFAFF",
"J  c #EDFBFE",
"K  c #EBFDFF",
"L  c #ECFCFF",
"P  c #ECFDFF",
"I  c #EDFCFE",
"U  c #EFFCFF",
"Y  c #EEFDFF",
"T  c #EDFFFF",
"R  c #EEFEFF",
"E  c #EEFFFF",
"W  c #EFFFFF",
"Q  c #EBFBFF",
"!  c #F0F5F9",
"~  c #F0F6F9",
"^  c #F0F7F9",
"/  c #F2F7F9",
"(  c #F1F7FA",
")  c #F1F6FA",
"_  c #F3F6FA",
"`  c #F3F7FA",
"'  c #F3F7FB",
"]  c #F4F7FB",
"[  c #F5F7FB",
"{  c #F3F1FF",
"}  c #F3F2FF",
"|  c #F1F5FF",
" . c #F3F5FF",
".. c #F3F6FF",
"X. c #F2F3FF",
"o. c #FBF4FF",
"O. c #FFF5FF",
"+. c #FDF7FF",
"@. c #FCF7FF",
"#. c #F1F8FB",
"$. c #F2F8FA",
"%. c #F3F8FA",
"&. c #F3F9FB",
"*. c #F5F8FB",
"=. c #F4F9FB",
"-. c #F5F9FB",
";. c #F4F8FB",
":. c #F5FAFB",
">. c #F6FAFB",
",. c #F7FBFB",
"<. c #F3FAFC",
"1. c #F0F9FE",
"2. c #F5F9FC",
"3. c #F5FAFC",
"4. c #F6FAFC",
"5. c #F6FBFC",
"6. c #F7FBFC",
"7. c #F7FAFD",
"8. c #F4F9FF",
"9. c #F0FCFD",
"0. c #F0FDFF",
"q. c #F2FCFF",
"w. c #F3FCFF",
"e. c #F2FDFF",
"r. c #F3FDFF",
"t. c #F0FEFF",
"y. c #F1FEFF",
"u. c azure",
"i. c #F1FFFF",
"p. c #F2FEFF",
"a. c #F3FEFF",
"s. c #F2FFFF",
"d. c #F3FFFF",
"f. c #F4FDFF",
"g. c #F6FDFF",
"h. c #F4FEFF",
"j. c #F4FFFF",
"k. c #F5FFFF",
"l. c #F7FEFF",
"z. c #F6FFFF",
"x. c #F7FFFF",
"c. c #F4FDFF",
"v. c #F8FBFC",
"b. c #F9FBFC",
"n. c #F8FAFD",
"m. c #F9FAFD",
"M. c #F8FBFD",
"N. c #F9FBFD",
"B. c #FAFBFD",
"V. c #FBF9FF",
"C. c #FEFBFF",
"Z. c #FFFBFF",
"A. c #F9FCFC",
"S. c #F8FCFD",
"D. c #F9FCFD",
"F. c #FAFCFD",
"G. c #F9FDFF",
"H. c #FAFCFE",
"J. c #FBFCFE",
"K. c #FAFDFE",
"L. c #FBFDFE",
"P. c #F9FEFF",
"I. c #F8FFFF",
"U. c #F9FFFF",
"Y. c #FAFFFF",
"T. c #FBFFFF",
"R. c #FCFDFE",
"E. c #FDFDFE",
"W. c #FCFDFF",
"Q. c #FDFDFF",
"!. c #FCFEFE",
"~. c #FDFEFE",
"^. c #FCFEFF",
"/. c #FDFEFF",
"(. c #FCFFFF",
"). c #FDFFFF",
"_. c #FEFEFE",
"`. c #FEFEFF",
"'. c #FEFFFF",
"]. c white",
"[. c #FCFEFF",
/* pixels */
"                                                                                                                                ",
"                                                                                                                                ",
"                                                                                                                                ",
"                                                                                                                                ",
"                                                                                                                                ",
"                                                                                                                                ",
"                                                            f n S S n f                                                         ",
"                                                          ' (.(.(.(.(.(.,.F                                                     ",
"                                                        (.(.(.(.(.(.(.(.N.,.S                                                   ",
"                            S [ [ [ ' m     n [ ' f ; ' (.(.(.(.(.(.(.(.(.' S n                                                 ",
"                          ,.,.(.(.(.(.(.(.m J.(.(.,.N.(.(.(.(.(.(.(.(.(.(.N.S S <                                               ",
"                        n ' U.(.(.(.(.U.,.(.(.(.(.U.U.(.(.(.(.(.(.(.(.(.(.(.' S f                                               ",
"                ' %.S n ' (.(.(.(.(.(.(.N.(.(.(.(.(.(.(.(.(.(.(.(.(.(.(.(.(.(.%.F S (.(.N.m                                     ",
"              ' U.x.5.' 5.(.(.(.(.(.(.(.(.(.(.(.(.(.(.(.(.(.(.(.(.(.(.(.(.(.(.(.N.(.(.(.5.F ,.    ' [ f                         ",
"            2 <.i.i.U.U.U.(.(.(.(.(.(.(.(.(.(.(.(.(.(.(.(.(.(.(.(.(.(.(.(.(.(.(.(.(.(.(.(.' [ ; N.(.U.U.(.s                     ",
"            < F T i.x.(.(.(.(.(.U.(.(.(.(.(.(.(.(.(.(.(.(.(.(.(.(.(.(.(.(.(.(.(.(.(.(.(.(.J.F (.(.(.U.F D %.t                   ",
"            n i.T T x.U.,.' 5.' F N.(.(.(.(.(.(.(.(.(.(.(.(.(.(.(.(.(.(.(.(.(.(.(.(.(.N.U.U.' (.(.(.(.T c A n                   ",
"        x.i.x.x.T T x.(.U.F S 5.(.(.(.(.(.(.(.(.(.(.(.(.(.(.(.(.(.(.(.(.(.(.(.(.5.N.,.S ' (.(.(.(.U.i.G v z f                   ",
"      5.G D D D F i.U.(.(.(.U.(.(.(.(.(.(.(.(.(.(.(.(.(.(.(.(.(.(.(.(.(.(.(.(.(.N.' S N.(.(.(.(.(.(.T G v c A #                 ",
"    n 5.c j B B D U.(.(.(.(.(.(.(.(.(.(.(.(.(.(.(.(.(.(.(.(.(.(.(.(.(.(.(.(.(.(.(.(.U.(.(.(.(.(.(.(.x.G v G H n f               ",
"    s F j g M B | J.J.(.(.(.(.(.(.(.(.(.(.(.(.(.(.(.(.(.(.(.(.(.(.(.(.(.(.(.(.(.(.(.(.(.(.(.J.(.(.(.(.i.T T K G Q F 8           ",
"      s k g V { J.+.+.(.x.x.x.U.U.(.(.(.(.(.(.N.%.F ' (.(.(.(.(.(.(.(.(.(.(.(.(.(.(.(.(.(.(.(.(.(.(.(.U.i.G v x c c N =         ",
"        B B Z ..<...+.(.x.i.T i.U.(.(.(.(.(.(.(.(.U.S F ' ' N.(.(.(.(.(.(.(.(.(.(.(.(.(.(.(.(.(.x.x.U.x.Q c x d j h M 8         ",
"            Z V B B Z i.H H F | U.(.(.(.(.(.(.(.(.(.(.,.N.(.(.(.(.(.(.U.U.(.U.x.U.U.(.(.x.i.T H i.i.i.G G c j u 7 0 r w         ",
"            V b s q b B B D V { U.(.(.(.(.(.(.(.(.(.(.(.(.(.(.(.(.(.(.U.U.(.U.i.x.i.i.x.G v G G F Q G c D c c d 0 8 q >         ",
"            V w q 1 1 q s d B V { +.(.(.(.U.U.(.(.(.(.(.(.(.U.U.(.(.(.(.(.U.i.T K G G v l x c B s s j c k k V N r 0 2 o         ",
"            Z s 8 1 1 q s k k B N Z ..N.U.x.U.(.x.U.(.(.U.x.<.x.x.U.(.(.U.x.T G v v v l l x c B s 2 0 d h h b N N b o           ",
"            > n q 2 q 2 s G c h q M B V { <.x.U.i.T x.U.T Q Q F F F x.x.H G G c c c x j j h h B M s 0 0 0 2 #                   ",
"                , ; #     B h 0 0 g h M V D F | H G G G c c c k h k F Q G c c k j j j g g s h r M 0 q 2 2 $                     ",
"                          B 7 , , i g h B D D F F D c j j p p 5 5 g c c D D d a < 7 7 6 8 q r 9 >                               ",
"                          q < - , 0 k D D F | { V B g g i 7 5 = > g j j x A a 2 , : * - , e e -                                 ",
"                            2 , , 0 0 5.F F { Z N w 6 6 = = = = > a j j y < s t < , , , 9 e 3                                   ",
"                              @ o X   < t 2 V C N r 6 > = = = = , & .       # > , 6 8 4 4 +                                     ",
"                                            = N N M 0 , = = , % o                                                               ",
"                                                  O = , ; @                                                                     ",
"                                                                                                                                ",
"                                                                                                                                ",
"                                                                                                                                ",
"                                                                                                                                ",
"                                                                                                                                ",
"                                                                                                                                ",
"                                                                                                                                "
};
